STARTFONT 2.1
COMMENT
COMMENT Converted from OpenType font "GoogleSans-Regular.ttf" by "otf2bdf 3.0".
COMMENT
FONT -FreeType-Google Sans-Medium-R-Normal--17-120-100-100-P-84-ISO10646-1
SIZE 12 100 100
FONTBOUNDINGBOX 30 21 -6 -4
STARTPROPERTIES 19
FOUNDRY "FreeType"
FAMILY_NAME "Google Sans"
WEIGHT_NAME "Medium"
SLANT "R"
SETWIDTH_NAME "Normal"
ADD_STYLE_NAME ""
PIXEL_SIZE 17
POINT_SIZE 120
RESOLUTION_X 100
RESOLUTION_Y 100
SPACING "P"
AVERAGE_WIDTH 84
CHARSET_REGISTRY "ISO10646"
CHARSET_ENCODING "1"
FONT_ASCENT 16
FONT_DESCENT 5
COPYRIGHT "Copyright 2017 Google Inc. All Rights Reserved."
_OTF_FONTFILE "GoogleSans-Regular.ttf"
_OTF_PSNAME "GoogleSans-Regular"
ENDPROPERTIES
CHARS 683
STARTCHAR 0002
ENCODING 2
SWIDTH 0 0
DWIDTH 0 0
BBX 0 0 0 0
BITMAP
ENDCHAR
STARTCHAR 0009
ENCODING 9
SWIDTH 0 0
DWIDTH 0 0
BBX 0 0 0 0
BITMAP
ENDCHAR
STARTCHAR 000A
ENCODING 10
SWIDTH 0 0
DWIDTH 0 0
BBX 0 0 0 0
BITMAP
ENDCHAR
STARTCHAR 000D
ENCODING 13
SWIDTH 0 0
DWIDTH 0 0
BBX 0 0 0 0
BITMAP
ENDCHAR
STARTCHAR 0020
ENCODING 32
SWIDTH 240 0
DWIDTH 4 0
BBX 0 0 0 0
BITMAP
ENDCHAR
STARTCHAR 0021
ENCODING 33
SWIDTH 240 0
DWIDTH 4 0
BBX 2 12 1 0
BITMAP
40
40
40
40
40
40
40
40
00
00
C0
C0
ENDCHAR
STARTCHAR 0022
ENCODING 34
SWIDTH 300 0
DWIDTH 5 0
BBX 3 4 1 8
BITMAP
A0
A0
A0
A0
ENDCHAR
STARTCHAR 0023
ENCODING 35
SWIDTH 660 0
DWIDTH 11 0
BBX 9 12 1 0
BITMAP
1300
1200
3200
FF80
2200
2200
2600
FF80
2400
6400
6400
4400
ENDCHAR
STARTCHAR 0024
ENCODING 36
SWIDTH 540 0
DWIDTH 9 0
BBX 8 15 0 -2
BITMAP
08
18
7E
4B
48
48
78
1C
0F
0B
C9
4B
7E
08
08
ENDCHAR
STARTCHAR 0025
ENCODING 37
SWIDTH 840 0
DWIDTH 14 0
BBX 12 12 1 0
BITMAP
7040
D8C0
8880
9900
7300
0200
04E0
0DB0
1910
1110
21B0
20E0
ENDCHAR
STARTCHAR 0026
ENCODING 38
SWIDTH 600 0
DWIDTH 10 0
BBX 9 12 1 0
BITMAP
3800
6C00
4000
4000
2000
7000
D800
8D80
8500
C300
6700
3D00
ENDCHAR
STARTCHAR 0027
ENCODING 39
SWIDTH 180 0
DWIDTH 3 0
BBX 1 4 1 8
BITMAP
80
80
80
80
ENDCHAR
STARTCHAR 0028
ENCODING 40
SWIDTH 300 0
DWIDTH 5 0
BBX 4 15 1 -2
BITMAP
30
60
40
C0
C0
80
80
80
80
80
C0
C0
40
60
30
ENDCHAR
STARTCHAR 0029
ENCODING 41
SWIDTH 300 0
DWIDTH 5 0
BBX 4 15 0 -2
BITMAP
C0
40
60
20
30
10
10
10
10
30
30
20
60
40
C0
ENDCHAR
STARTCHAR 002A
ENCODING 42
SWIDTH 420 0
DWIDTH 7 0
BBX 6 5 0 6
BITMAP
10
10
FC
38
68
ENDCHAR
STARTCHAR 002B
ENCODING 43
SWIDTH 540 0
DWIDTH 9 0
BBX 7 7 1 2
BITMAP
10
10
10
FE
10
10
10
ENDCHAR
STARTCHAR 002C
ENCODING 44
SWIDTH 240 0
DWIDTH 4 0
BBX 2 4 1 -2
BITMAP
C0
C0
C0
80
ENDCHAR
STARTCHAR 002D
ENCODING 45
SWIDTH 420 0
DWIDTH 7 0
BBX 5 1 1 5
BITMAP
F8
ENDCHAR
STARTCHAR 002E
ENCODING 46
SWIDTH 240 0
DWIDTH 4 0
BBX 2 2 1 0
BITMAP
C0
C0
ENDCHAR
STARTCHAR 002F
ENCODING 47
SWIDTH 420 0
DWIDTH 7 0
BBX 6 12 1 0
BITMAP
0C
08
18
10
10
30
20
60
40
40
80
80
ENDCHAR
STARTCHAR 0030
ENCODING 48
SWIDTH 660 0
DWIDTH 11 0
BBX 9 12 1 0
BITMAP
3C00
6700
C100
C180
8080
8080
8080
8080
C180
C100
6700
3C00
ENDCHAR
STARTCHAR 0031
ENCODING 49
SWIDTH 420 0
DWIDTH 7 0
BBX 4 12 1 0
BITMAP
10
70
D0
10
10
10
10
10
10
10
10
10
ENDCHAR
STARTCHAR 0032
ENCODING 50
SWIDTH 540 0
DWIDTH 9 0
BBX 7 12 1 0
BITMAP
38
6E
C6
02
06
06
0C
18
30
60
C0
FE
ENDCHAR
STARTCHAR 0033
ENCODING 51
SWIDTH 540 0
DWIDTH 9 0
BBX 7 12 1 0
BITMAP
3C
6E
42
02
06
1C
0E
06
02
C6
6C
38
ENDCHAR
STARTCHAR 0034
ENCODING 52
SWIDTH 600 0
DWIDTH 10 0
BBX 8 12 1 0
BITMAP
02
06
0E
1A
12
22
62
C2
FF
02
02
02
ENDCHAR
STARTCHAR 0035
ENCODING 53
SWIDTH 540 0
DWIDTH 9 0
BBX 7 12 1 0
BITMAP
FC
C0
C0
80
B8
CC
06
02
82
86
CC
78
ENDCHAR
STARTCHAR 0036
ENCODING 54
SWIDTH 540 0
DWIDTH 9 0
BBX 7 12 1 1
BITMAP
18
10
20
60
78
EC
86
82
82
86
6C
38
ENDCHAR
STARTCHAR 0037
ENCODING 55
SWIDTH 540 0
DWIDTH 9 0
BBX 7 12 1 0
BITMAP
FE
06
04
0C
08
18
10
30
20
60
40
40
ENDCHAR
STARTCHAR 0038
ENCODING 56
SWIDTH 540 0
DWIDTH 9 0
BBX 7 12 1 0
BITMAP
78
EE
82
82
C6
7C
CE
86
82
86
CC
78
ENDCHAR
STARTCHAR 0039
ENCODING 57
SWIDTH 540 0
DWIDTH 9 0
BBX 7 12 1 0
BITMAP
38
EC
86
82
82
C6
7C
0C
18
10
30
20
ENDCHAR
STARTCHAR 003A
ENCODING 58
SWIDTH 240 0
DWIDTH 4 0
BBX 2 9 1 0
BITMAP
C0
C0
00
00
00
00
00
C0
C0
ENDCHAR
STARTCHAR 003B
ENCODING 59
SWIDTH 240 0
DWIDTH 4 0
BBX 2 11 1 -2
BITMAP
C0
C0
00
00
00
00
00
C0
C0
80
80
ENDCHAR
STARTCHAR 003C
ENCODING 60
SWIDTH 480 0
DWIDTH 8 0
BBX 7 7 1 1
BITMAP
06
18
60
C0
70
1C
06
ENDCHAR
STARTCHAR 003D
ENCODING 61
SWIDTH 540 0
DWIDTH 9 0
BBX 7 4 1 3
BITMAP
FE
00
00
FE
ENDCHAR
STARTCHAR 003E
ENCODING 62
SWIDTH 480 0
DWIDTH 8 0
BBX 7 7 1 1
BITMAP
C0
70
1C
06
18
E0
80
ENDCHAR
STARTCHAR 003F
ENCODING 63
SWIDTH 480 0
DWIDTH 8 0
BBX 6 12 1 0
BITMAP
78
DC
84
04
0C
18
10
10
00
00
30
30
ENDCHAR
STARTCHAR 0040
ENCODING 64
SWIDTH 900 0
DWIDTH 15 0
BBX 13 13 1 -1
BITMAP
0F80
38E0
6030
CE90
D998
9188
9088
9088
9998
CEF0
6000
3000
1F00
ENDCHAR
STARTCHAR 0041
ENCODING 65
SWIDTH 660 0
DWIDTH 11 0
BBX 11 12 0 0
BITMAP
0600
0E00
0A00
1B00
1100
1100
3180
3F80
20C0
6040
4040
C060
ENDCHAR
STARTCHAR 0042
ENCODING 66
SWIDTH 660 0
DWIDTH 11 0
BBX 8 12 2 0
BITMAP
FC
86
82
82
86
F8
86
83
81
83
86
FC
ENDCHAR
STARTCHAR 0043
ENCODING 67
SWIDTH 720 0
DWIDTH 12 0
BBX 10 12 1 0
BITMAP
1F00
39C0
6040
C000
8000
8000
8000
8000
C000
6040
39C0
1F00
ENDCHAR
STARTCHAR 0044
ENCODING 68
SWIDTH 720 0
DWIDTH 12 0
BBX 9 12 2 0
BITMAP
FC00
8E00
8300
8180
8080
8080
8080
8080
8180
8300
8E00
FC00
ENDCHAR
STARTCHAR 0045
ENCODING 69
SWIDTH 600 0
DWIDTH 10 0
BBX 7 12 2 0
BITMAP
FE
80
80
80
80
FC
80
80
80
80
80
FE
ENDCHAR
STARTCHAR 0046
ENCODING 70
SWIDTH 540 0
DWIDTH 9 0
BBX 7 12 2 0
BITMAP
FE
80
80
80
80
FC
80
80
80
80
80
80
ENDCHAR
STARTCHAR 0047
ENCODING 71
SWIDTH 840 0
DWIDTH 14 0
BBX 12 12 1 0
BITMAP
1F80
39C0
6000
C000
8000
83F0
8010
8030
C030
6060
39C0
1F80
ENDCHAR
STARTCHAR 0048
ENCODING 72
SWIDTH 720 0
DWIDTH 12 0
BBX 9 12 2 0
BITMAP
8080
8080
8080
8080
8080
FF80
8080
8080
8080
8080
8080
8080
ENDCHAR
STARTCHAR 0049
ENCODING 73
SWIDTH 240 0
DWIDTH 4 0
BBX 1 12 2 0
BITMAP
80
80
80
80
80
80
80
80
80
80
80
80
ENDCHAR
STARTCHAR 004A
ENCODING 74
SWIDTH 540 0
DWIDTH 9 0
BBX 7 12 1 0
BITMAP
02
02
02
02
02
02
02
02
02
86
EC
38
ENDCHAR
STARTCHAR 004B
ENCODING 75
SWIDTH 660 0
DWIDTH 11 0
BBX 8 12 2 0
BITMAP
83
86
8C
88
98
B0
F8
CC
84
86
83
81
ENDCHAR
STARTCHAR 004C
ENCODING 76
SWIDTH 540 0
DWIDTH 9 0
BBX 6 12 2 0
BITMAP
80
80
80
80
80
80
80
80
80
80
80
FC
ENDCHAR
STARTCHAR 004D
ENCODING 77
SWIDTH 840 0
DWIDTH 14 0
BBX 11 12 2 0
BITMAP
C060
C0E0
E0A0
A0A0
A1A0
B120
9120
9B20
8A20
8A20
8E20
8420
ENDCHAR
STARTCHAR 004E
ENCODING 78
SWIDTH 720 0
DWIDTH 12 0
BBX 9 12 2 0
BITMAP
C080
C080
E080
B080
9080
9880
8C80
8480
8680
8380
8180
8180
ENDCHAR
STARTCHAR 004F
ENCODING 79
SWIDTH 840 0
DWIDTH 14 0
BBX 12 12 1 0
BITMAP
1F00
39C0
6060
C030
8030
8010
8010
8030
C030
6060
39C0
1F00
ENDCHAR
STARTCHAR 0050
ENCODING 80
SWIDTH 600 0
DWIDTH 10 0
BBX 7 12 2 0
BITMAP
F8
8C
86
82
82
86
FC
80
80
80
80
80
ENDCHAR
STARTCHAR 0051
ENCODING 81
SWIDTH 840 0
DWIDTH 14 0
BBX 12 12 1 0
BITMAP
1F00
39C0
6060
C030
8030
8010
8010
8030
C1B0
60E0
39C0
1F60
ENDCHAR
STARTCHAR 0052
ENCODING 82
SWIDTH 600 0
DWIDTH 10 0
BBX 7 12 2 0
BITMAP
F8
8C
86
82
82
86
FC
98
88
8C
86
82
ENDCHAR
STARTCHAR 0053
ENCODING 83
SWIDTH 540 0
DWIDTH 9 0
BBX 8 12 0 0
BITMAP
3C
66
42
40
60
3C
0E
03
41
C1
67
3C
ENDCHAR
STARTCHAR 0054
ENCODING 84
SWIDTH 600 0
DWIDTH 10 0
BBX 8 12 1 0
BITMAP
FF
08
08
08
08
08
08
08
08
08
08
08
ENDCHAR
STARTCHAR 0055
ENCODING 85
SWIDTH 600 0
DWIDTH 10 0
BBX 8 12 1 0
BITMAP
81
81
81
81
81
81
81
81
81
C3
66
3C
ENDCHAR
STARTCHAR 0056
ENCODING 86
SWIDTH 660 0
DWIDTH 11 0
BBX 10 12 0 0
BITMAP
C040
40C0
6080
6180
2180
3100
1300
1300
1A00
0E00
0C00
0C00
ENDCHAR
STARTCHAR 0057
ENCODING 87
SWIDTH 960 0
DWIDTH 16 0
BBX 15 12 0 0
BITMAP
C182
4182
4386
63C6
6244
2244
266C
3468
1428
1C28
1838
1810
ENDCHAR
STARTCHAR 0058
ENCODING 88
SWIDTH 660 0
DWIDTH 11 0
BBX 9 12 1 0
BITMAP
C180
4300
6200
2600
3C00
1800
1C00
3400
2600
6300
C100
8180
ENDCHAR
STARTCHAR 0059
ENCODING 89
SWIDTH 600 0
DWIDTH 10 0
BBX 9 12 1 0
BITMAP
C180
4100
6300
2600
3400
1C00
0800
0800
0800
0800
0800
0800
ENDCHAR
STARTCHAR 005A
ENCODING 90
SWIDTH 600 0
DWIDTH 10 0
BBX 8 12 1 0
BITMAP
FF
03
06
06
0C
18
10
30
60
40
C0
FF
ENDCHAR
STARTCHAR 005B
ENCODING 91
SWIDTH 360 0
DWIDTH 6 0
BBX 3 15 2 -2
BITMAP
E0
80
80
80
80
80
80
80
80
80
80
80
80
80
E0
ENDCHAR
STARTCHAR 005C
ENCODING 92
SWIDTH 420 0
DWIDTH 7 0
BBX 6 12 1 0
BITMAP
80
80
40
40
60
20
30
10
10
18
08
0C
ENDCHAR
STARTCHAR 005D
ENCODING 93
SWIDTH 300 0
DWIDTH 5 0
BBX 3 15 1 -2
BITMAP
E0
20
20
20
20
20
20
20
20
20
20
20
20
20
E0
ENDCHAR
STARTCHAR 005E
ENCODING 94
SWIDTH 480 0
DWIDTH 8 0
BBX 6 5 1 7
BITMAP
30
70
48
CC
84
ENDCHAR
STARTCHAR 005F
ENCODING 95
SWIDTH 480 0
DWIDTH 8 0
BBX 8 1 0 -4
BITMAP
FF
ENDCHAR
STARTCHAR 0060
ENCODING 96
SWIDTH 420 0
DWIDTH 7 0
BBX 2 2 2 10
BITMAP
80
40
ENDCHAR
STARTCHAR 0061
ENCODING 97
SWIDTH 540 0
DWIDTH 9 0
BBX 7 9 1 0
BITMAP
7C
CE
02
7E
C6
82
86
CE
7A
ENDCHAR
STARTCHAR 0062
ENCODING 98
SWIDTH 600 0
DWIDTH 10 0
BBX 8 12 1 0
BITMAP
80
80
80
BC
E6
C3
81
81
81
C3
E6
BC
ENDCHAR
STARTCHAR 0063
ENCODING 99
SWIDTH 540 0
DWIDTH 9 0
BBX 7 9 1 0
BITMAP
3C
66
C2
80
80
80
C2
66
3C
ENDCHAR
STARTCHAR 0064
ENCODING 100
SWIDTH 600 0
DWIDTH 10 0
BBX 8 12 1 0
BITMAP
01
01
01
3D
67
C3
81
81
81
C3
67
3D
ENDCHAR
STARTCHAR 0065
ENCODING 101
SWIDTH 600 0
DWIDTH 10 0
BBX 8 9 1 0
BITMAP
3C
66
81
FF
80
80
C3
66
3C
ENDCHAR
STARTCHAR 0066
ENCODING 102
SWIDTH 420 0
DWIDTH 7 0
BBX 6 12 1 0
BITMAP
1C
34
20
F8
20
20
20
20
20
20
20
20
ENDCHAR
STARTCHAR 0067
ENCODING 103
SWIDTH 600 0
DWIDTH 10 0
BBX 8 13 1 -4
BITMAP
3D
67
C3
81
81
81
C3
67
3D
01
C3
66
3C
ENDCHAR
STARTCHAR 0068
ENCODING 104
SWIDTH 540 0
DWIDTH 9 0
BBX 7 12 1 0
BITMAP
80
80
80
BC
EE
C6
82
82
82
82
82
82
ENDCHAR
STARTCHAR 0069
ENCODING 105
SWIDTH 240 0
DWIDTH 4 0
BBX 2 12 1 0
BITMAP
C0
C0
00
40
40
40
40
40
40
40
40
40
ENDCHAR
STARTCHAR 006A
ENCODING 106
SWIDTH 240 0
DWIDTH 4 0
BBX 3 16 0 -4
BITMAP
60
60
00
20
20
20
20
20
20
20
20
20
20
20
60
C0
ENDCHAR
STARTCHAR 006B
ENCODING 107
SWIDTH 480 0
DWIDTH 8 0
BBX 7 12 1 0
BITMAP
80
80
80
86
8C
98
B0
F0
D8
88
8C
86
ENDCHAR
STARTCHAR 006C
ENCODING 108
SWIDTH 180 0
DWIDTH 3 0
BBX 1 12 1 0
BITMAP
80
80
80
80
80
80
80
80
80
80
80
80
ENDCHAR
STARTCHAR 006D
ENCODING 109
SWIDTH 900 0
DWIDTH 15 0
BBX 13 9 1 0
BITMAP
BCF0
E798
C308
8208
8208
8208
8208
8208
8208
ENDCHAR
STARTCHAR 006E
ENCODING 110
SWIDTH 540 0
DWIDTH 9 0
BBX 7 9 1 0
BITMAP
BC
E6
C2
82
82
82
82
82
82
ENDCHAR
STARTCHAR 006F
ENCODING 111
SWIDTH 600 0
DWIDTH 10 0
BBX 8 9 1 0
BITMAP
3C
66
C3
81
81
81
C3
66
3C
ENDCHAR
STARTCHAR 0070
ENCODING 112
SWIDTH 600 0
DWIDTH 10 0
BBX 8 13 1 -4
BITMAP
BC
E6
C3
81
81
81
C3
E6
BC
80
80
80
80
ENDCHAR
STARTCHAR 0071
ENCODING 113
SWIDTH 600 0
DWIDTH 10 0
BBX 8 13 1 -4
BITMAP
3D
67
C3
81
81
81
C3
67
3D
01
01
01
01
ENDCHAR
STARTCHAR 0072
ENCODING 114
SWIDTH 360 0
DWIDTH 6 0
BBX 5 9 1 0
BITMAP
B8
E8
C0
80
80
80
80
80
80
ENDCHAR
STARTCHAR 0073
ENCODING 115
SWIDTH 480 0
DWIDTH 8 0
BBX 6 9 1 0
BITMAP
78
CC
80
C0
78
0C
84
CC
78
ENDCHAR
STARTCHAR 0074
ENCODING 116
SWIDTH 420 0
DWIDTH 7 0
BBX 5 12 1 0
BITMAP
20
20
20
F8
20
20
20
20
20
20
30
38
ENDCHAR
STARTCHAR 0075
ENCODING 117
SWIDTH 540 0
DWIDTH 9 0
BBX 7 9 1 0
BITMAP
82
82
82
82
82
82
86
CE
7A
ENDCHAR
STARTCHAR 0076
ENCODING 118
SWIDTH 540 0
DWIDTH 9 0
BBX 8 9 0 0
BITMAP
C1
43
63
62
26
34
14
1C
18
ENDCHAR
STARTCHAR 0077
ENCODING 119
SWIDTH 780 0
DWIDTH 13 0
BBX 13 9 0 0
BITMAP
C218
4710
4510
6530
6DA0
28A0
28A0
38E0
10C0
ENDCHAR
STARTCHAR 0078
ENCODING 120
SWIDTH 480 0
DWIDTH 8 0
BBX 7 9 1 0
BITMAP
86
CC
68
38
30
78
48
CC
86
ENDCHAR
STARTCHAR 0079
ENCODING 121
SWIDTH 540 0
DWIDTH 9 0
BBX 8 13 0 -4
BITMAP
C1
43
62
22
26
34
1C
18
08
18
10
30
20
ENDCHAR
STARTCHAR 007A
ENCODING 122
SWIDTH 540 0
DWIDTH 9 0
BBX 7 9 1 0
BITMAP
FE
06
0C
18
10
20
60
C0
FE
ENDCHAR
STARTCHAR 007B
ENCODING 123
SWIDTH 300 0
DWIDTH 5 0
BBX 4 15 1 -2
BITMAP
30
60
40
40
40
40
C0
80
C0
40
40
40
40
40
70
ENDCHAR
STARTCHAR 007C
ENCODING 124
SWIDTH 240 0
DWIDTH 4 0
BBX 1 16 2 -2
BITMAP
80
80
80
80
80
80
80
80
80
80
80
80
80
80
80
80
ENDCHAR
STARTCHAR 007D
ENCODING 125
SWIDTH 360 0
DWIDTH 6 0
BBX 4 15 1 -2
BITMAP
C0
60
20
20
20
20
20
10
30
20
20
20
20
60
C0
ENDCHAR
STARTCHAR 007E
ENCODING 126
SWIDTH 540 0
DWIDTH 9 0
BBX 7 2 1 4
BITMAP
72
9E
ENDCHAR
STARTCHAR 00A0
ENCODING 160
SWIDTH 240 0
DWIDTH 4 0
BBX 0 0 0 0
BITMAP
ENDCHAR
STARTCHAR 00A1
ENCODING 161
SWIDTH 240 0
DWIDTH 4 0
BBX 2 13 1 -4
BITMAP
C0
C0
00
00
40
40
40
40
40
40
40
40
40
ENDCHAR
STARTCHAR 00A2
ENCODING 162
SWIDTH 540 0
DWIDTH 9 0
BBX 7 12 1 0
BITMAP
10
10
7C
D6
90
90
90
90
D6
7C
10
10
ENDCHAR
STARTCHAR 00A3
ENCODING 163
SWIDTH 540 0
DWIDTH 9 0
BBX 7 12 1 0
BITMAP
78
CC
84
80
80
C0
60
F8
20
60
C2
FE
ENDCHAR
STARTCHAR 00A4
ENCODING 164
SWIDTH 660 0
DWIDTH 11 0
BBX 8 7 1 2
BITMAP
DD
77
43
41
41
63
FF
ENDCHAR
STARTCHAR 00A5
ENCODING 165
SWIDTH 540 0
DWIDTH 9 0
BBX 9 12 0 0
BITMAP
C180
4100
6300
2600
1400
7F00
0800
0800
7F00
0800
0800
0800
ENDCHAR
STARTCHAR 00A6
ENCODING 166
SWIDTH 240 0
DWIDTH 4 0
BBX 1 15 2 -2
BITMAP
80
80
80
80
80
80
80
00
80
80
80
80
80
80
80
ENDCHAR
STARTCHAR 00A7
ENCODING 167
SWIDTH 540 0
DWIDTH 9 0
BBX 7 16 1 -4
BITMAP
78
CC
84
80
E0
78
CE
82
C2
76
1C
06
82
82
CE
78
ENDCHAR
STARTCHAR 00A8
ENCODING 168
SWIDTH 360 0
DWIDTH 6 0
BBX 4 1 1 11
BITMAP
90
ENDCHAR
STARTCHAR 00A9
ENCODING 169
SWIDTH 600 0
DWIDTH 10 0
BBX 8 8 1 5
BITMAP
3C
66
FB
A1
A1
BB
C6
7C
ENDCHAR
STARTCHAR 00AA
ENCODING 170
SWIDTH 480 0
DWIDTH 8 0
BBX 6 7 1 5
BITMAP
78
CC
04
7C
C4
8C
F4
ENDCHAR
STARTCHAR 00AB
ENCODING 171
SWIDTH 540 0
DWIDTH 9 0
BBX 7 7 1 1
BITMAP
36
64
C8
98
4C
24
32
ENDCHAR
STARTCHAR 00AC
ENCODING 172
SWIDTH 600 0
DWIDTH 10 0
BBX 7 5 1 2
BITMAP
FE
02
02
02
02
ENDCHAR
STARTCHAR 00AD
ENCODING 173
SWIDTH 420 0
DWIDTH 7 0
BBX 5 1 1 5
BITMAP
F8
ENDCHAR
STARTCHAR 00AE
ENCODING 174
SWIDTH 600 0
DWIDTH 10 0
BBX 8 8 1 5
BITMAP
3C
66
FB
A9
B9
AB
C6
7C
ENDCHAR
STARTCHAR 00AF
ENCODING 175
SWIDTH 420 0
DWIDTH 7 0
BBX 5 1 1 11
BITMAP
F8
ENDCHAR
STARTCHAR 00B0
ENCODING 176
SWIDTH 360 0
DWIDTH 6 0
BBX 4 4 1 8
BITMAP
E0
B0
90
F0
ENDCHAR
STARTCHAR 00B1
ENCODING 177
SWIDTH 540 0
DWIDTH 9 0
BBX 7 9 1 0
BITMAP
10
10
10
FE
10
10
10
00
FE
ENDCHAR
STARTCHAR 00B2
ENCODING 178
SWIDTH 360 0
DWIDTH 6 0
BBX 4 6 1 6
BITMAP
E0
90
10
20
C0
F0
ENDCHAR
STARTCHAR 00B3
ENCODING 179
SWIDTH 360 0
DWIDTH 6 0
BBX 4 6 1 6
BITMAP
F0
10
60
10
90
E0
ENDCHAR
STARTCHAR 00B4
ENCODING 180
SWIDTH 420 0
DWIDTH 7 0
BBX 2 2 3 10
BITMAP
C0
80
ENDCHAR
STARTCHAR 00B5
ENCODING 181
SWIDTH 540 0
DWIDTH 9 0
BBX 7 13 1 -4
BITMAP
82
82
82
82
82
82
86
CE
FA
80
80
80
80
ENDCHAR
STARTCHAR 00B6
ENCODING 182
SWIDTH 600 0
DWIDTH 10 0
BBX 9 16 0 -4
BITMAP
3F80
7C80
FC80
FC80
FC80
7C80
3C80
0480
0480
0480
0480
0480
0480
0480
0480
0480
ENDCHAR
STARTCHAR 00B7
ENCODING 183
SWIDTH 240 0
DWIDTH 4 0
BBX 2 2 1 4
BITMAP
C0
C0
ENDCHAR
STARTCHAR 00B8
ENCODING 184
SWIDTH 420 0
DWIDTH 7 0
BBX 3 4 2 -4
BITMAP
80
E0
20
E0
ENDCHAR
STARTCHAR 00B9
ENCODING 185
SWIDTH 240 0
DWIDTH 4 0
BBX 2 6 1 6
BITMAP
C0
C0
40
40
40
40
ENDCHAR
STARTCHAR 00BA
ENCODING 186
SWIDTH 540 0
DWIDTH 9 0
BBX 7 7 1 5
BITMAP
78
CC
86
82
82
C6
7C
ENDCHAR
STARTCHAR 00BB
ENCODING 187
SWIDTH 540 0
DWIDTH 9 0
BBX 7 7 1 1
BITMAP
D8
4C
26
32
24
4C
88
ENDCHAR
STARTCHAR 00BC
ENCODING 188
SWIDTH 780 0
DWIDTH 13 0
BBX 11 12 1 0
BITMAP
60C0
E080
2100
2300
2200
2400
0CC0
08C0
1140
3240
23E0
4040
ENDCHAR
STARTCHAR 00BD
ENCODING 189
SWIDTH 780 0
DWIDTH 13 0
BBX 11 12 1 0
BITMAP
6080
E180
2100
2200
2600
2400
08E0
0960
1060
30C0
2180
41E0
ENDCHAR
STARTCHAR 00BE
ENCODING 190
SWIDTH 840 0
DWIDTH 14 0
BBX 13 12 0 0
BITMAP
7820
4860
3040
1880
C980
7900
0230
0630
0450
0890
18F8
1010
ENDCHAR
STARTCHAR 00BF
ENCODING 191
SWIDTH 480 0
DWIDTH 8 0
BBX 6 13 1 -4
BITMAP
30
30
00
00
10
10
30
60
C0
80
84
DC
78
ENDCHAR
STARTCHAR 00C0
ENCODING 192
SWIDTH 660 0
DWIDTH 11 0
BBX 11 15 0 0
BITMAP
0C00
0400
0000
0600
0E00
0A00
1B00
1100
1100
3180
3F80
20C0
6040
4040
C060
ENDCHAR
STARTCHAR 00C1
ENCODING 193
SWIDTH 660 0
DWIDTH 11 0
BBX 11 15 0 0
BITMAP
0200
0400
0000
0600
0E00
0A00
1B00
1100
1100
3180
3F80
20C0
6040
4040
C060
ENDCHAR
STARTCHAR 00C2
ENCODING 194
SWIDTH 660 0
DWIDTH 11 0
BBX 11 16 0 0
BITMAP
0400
0A00
1900
0000
0600
0E00
0A00
1B00
1100
1100
3180
3F80
20C0
6040
4040
C060
ENDCHAR
STARTCHAR 00C3
ENCODING 195
SWIDTH 660 0
DWIDTH 11 0
BBX 10 15 1 0
BITMAP
3E00
0000
0000
0C00
1C00
1400
1600
3200
2300
2100
7F00
4180
C080
80C0
80C0
ENDCHAR
STARTCHAR 00C4
ENCODING 196
SWIDTH 660 0
DWIDTH 11 0
BBX 10 15 1 0
BITMAP
1200
0000
0000
0C00
1C00
1E00
1200
3300
2300
2100
7F80
4080
4080
C0C0
80C0
ENDCHAR
STARTCHAR 00C5
ENCODING 197
SWIDTH 660 0
DWIDTH 11 0
BBX 11 15 0 0
BITMAP
0E00
0A00
0A00
0E00
0E00
0A00
1B00
1100
3100
3180
3F80
6080
40C0
4040
C060
ENDCHAR
STARTCHAR 00C6
ENCODING 198
SWIDTH 960 0
DWIDTH 16 0
BBX 15 12 0 0
BITMAP
01FE
0380
0680
0480
0C80
08FC
1080
3F80
2080
6080
4080
C0FE
ENDCHAR
STARTCHAR 00C7
ENCODING 199
SWIDTH 780 0
DWIDTH 13 0
BBX 11 16 1 -4
BITMAP
1F80
39C0
6040
C000
8000
8000
8000
8000
C000
6060
39C0
1F80
0400
0700
0100
0700
ENDCHAR
STARTCHAR 00C8
ENCODING 200
SWIDTH 600 0
DWIDTH 10 0
BBX 7 15 2 0
BITMAP
20
30
00
FE
80
80
80
80
FC
80
80
80
80
80
FE
ENDCHAR
STARTCHAR 00C9
ENCODING 201
SWIDTH 600 0
DWIDTH 10 0
BBX 7 15 2 0
BITMAP
18
10
00
FE
80
80
80
80
FC
80
80
80
80
80
FE
ENDCHAR
STARTCHAR 00CA
ENCODING 202
SWIDTH 600 0
DWIDTH 10 0
BBX 7 16 2 0
BITMAP
10
38
4C
00
FE
80
80
80
80
FC
80
80
80
80
80
FE
ENDCHAR
STARTCHAR 00CB
ENCODING 203
SWIDTH 540 0
DWIDTH 9 0
BBX 6 15 2 0
BITMAP
48
00
00
FC
80
80
80
80
FC
80
80
80
80
80
FC
ENDCHAR
STARTCHAR 00CC
ENCODING 204
SWIDTH 240 0
DWIDTH 4 0
BBX 2 15 1 0
BITMAP
80
40
00
40
40
40
40
40
40
40
40
40
40
40
40
ENDCHAR
STARTCHAR 00CD
ENCODING 205
SWIDTH 240 0
DWIDTH 4 0
BBX 2 15 2 0
BITMAP
C0
80
00
80
80
80
80
80
80
80
80
80
80
80
80
ENDCHAR
STARTCHAR 00CE
ENCODING 206
SWIDTH 240 0
DWIDTH 4 0
BBX 5 16 0 0
BITMAP
20
70
98
00
20
20
20
20
20
20
20
20
20
20
20
20
ENDCHAR
STARTCHAR 00CF
ENCODING 207
SWIDTH 300 0
DWIDTH 5 0
BBX 3 15 1 0
BITMAP
A0
00
00
40
40
40
40
40
40
40
40
40
40
40
40
ENDCHAR
STARTCHAR 00D0
ENCODING 208
SWIDTH 780 0
DWIDTH 13 0
BBX 11 12 1 0
BITMAP
3F00
2380
20C0
2060
2020
FC20
2020
2020
2060
20C0
2380
3F00
ENDCHAR
STARTCHAR 00D1
ENCODING 209
SWIDTH 720 0
DWIDTH 12 0
BBX 9 15 2 0
BITMAP
3E00
0000
0000
C080
C080
E080
B080
9080
9880
8C80
8480
8680
8380
8180
8180
ENDCHAR
STARTCHAR 00D2
ENCODING 210
SWIDTH 840 0
DWIDTH 14 0
BBX 12 16 1 0
BITMAP
0C00
0400
0000
0000
1F00
39C0
6060
C030
8030
8010
8010
8030
C030
6060
39C0
1F00
ENDCHAR
STARTCHAR 00D3
ENCODING 211
SWIDTH 840 0
DWIDTH 14 0
BBX 12 16 1 0
BITMAP
0200
0200
0000
0000
1F00
39C0
6060
C030
8030
8010
8010
8030
C030
6060
39C0
1F00
ENDCHAR
STARTCHAR 00D4
ENCODING 212
SWIDTH 840 0
DWIDTH 14 0
BBX 12 16 1 0
BITMAP
0600
0E00
0900
0000
1F00
39C0
6060
C030
8030
8010
8010
8030
C030
6060
39C0
1F00
ENDCHAR
STARTCHAR 00D5
ENCODING 213
SWIDTH 840 0
DWIDTH 14 0
BBX 12 16 1 0
BITMAP
0D80
1700
0000
0000
1F00
39C0
6060
C030
8030
8010
8010
8030
C030
6060
39C0
1F00
ENDCHAR
STARTCHAR 00D6
ENCODING 214
SWIDTH 840 0
DWIDTH 14 0
BBX 12 15 1 0
BITMAP
0900
0000
0000
1F00
39C0
6060
C030
8030
8010
8010
8030
C030
6060
39C0
1F00
ENDCHAR
STARTCHAR 00D7
ENCODING 215
SWIDTH 540 0
DWIDTH 9 0
BBX 7 7 1 1
BITMAP
82
44
28
10
28
44
02
ENDCHAR
STARTCHAR 00D8
ENCODING 216
SWIDTH 840 0
DWIDTH 14 0
BBX 12 12 1 0
BITMAP
1F40
39C0
60E0
C130
8330
8210
8410
8C30
C830
7060
39C0
3F00
ENDCHAR
STARTCHAR 00D9
ENCODING 217
SWIDTH 600 0
DWIDTH 10 0
BBX 8 16 1 0
BITMAP
30
10
00
00
81
81
81
81
81
81
81
81
81
C3
66
3C
ENDCHAR
STARTCHAR 00DA
ENCODING 218
SWIDTH 600 0
DWIDTH 10 0
BBX 8 16 1 0
BITMAP
08
08
00
00
81
81
81
81
81
81
81
81
81
C3
66
3C
ENDCHAR
STARTCHAR 00DB
ENCODING 219
SWIDTH 600 0
DWIDTH 10 0
BBX 8 16 1 0
BITMAP
18
38
24
00
81
81
81
81
81
81
81
81
81
C3
66
3C
ENDCHAR
STARTCHAR 00DC
ENCODING 220
SWIDTH 600 0
DWIDTH 10 0
BBX 8 15 1 0
BITMAP
24
00
00
81
81
81
81
81
81
81
81
81
C3
66
3C
ENDCHAR
STARTCHAR 00DD
ENCODING 221
SWIDTH 600 0
DWIDTH 10 0
BBX 9 15 1 0
BITMAP
0C00
0800
0000
C180
4100
6300
2600
3400
1C00
0800
0800
0800
0800
0800
0800
ENDCHAR
STARTCHAR 00DE
ENCODING 222
SWIDTH 600 0
DWIDTH 10 0
BBX 7 12 2 0
BITMAP
80
80
F8
8C
86
82
86
86
FC
80
80
80
ENDCHAR
STARTCHAR 00DF
ENCODING 223
SWIDTH 600 0
DWIDTH 10 0
BBX 7 12 2 0
BITMAP
78
CE
82
82
86
9C
8E
86
82
86
8E
98
ENDCHAR
STARTCHAR 00E0
ENCODING 224
SWIDTH 540 0
DWIDTH 9 0
BBX 7 12 1 0
BITMAP
20
30
00
7C
CE
02
7E
C6
82
86
CE
7A
ENDCHAR
STARTCHAR 00E1
ENCODING 225
SWIDTH 540 0
DWIDTH 9 0
BBX 7 12 1 0
BITMAP
18
10
00
7C
CE
02
7E
C6
82
86
CE
7A
ENDCHAR
STARTCHAR 00E2
ENCODING 226
SWIDTH 540 0
DWIDTH 9 0
BBX 7 12 1 0
BITMAP
38
6C
00
7C
CE
02
7E
C6
82
86
CE
7A
ENDCHAR
STARTCHAR 00E3
ENCODING 227
SWIDTH 540 0
DWIDTH 9 0
BBX 7 12 1 0
BITMAP
FC
00
00
78
CE
02
7E
C6
82
86
CE
7A
ENDCHAR
STARTCHAR 00E4
ENCODING 228
SWIDTH 540 0
DWIDTH 9 0
BBX 7 12 1 0
BITMAP
28
00
00
7C
CE
02
7E
C6
82
86
CE
76
ENDCHAR
STARTCHAR 00E5
ENCODING 229
SWIDTH 540 0
DWIDTH 9 0
BBX 7 14 1 0
BITMAP
38
28
28
38
00
7C
CE
02
7E
C6
82
86
CE
7A
ENDCHAR
STARTCHAR 00E6
ENCODING 230
SWIDTH 960 0
DWIDTH 16 0
BBX 14 9 1 0
BITMAP
7CF0
EF98
0204
7FFC
C600
8200
870C
CD98
78F0
ENDCHAR
STARTCHAR 00E7
ENCODING 231
SWIDTH 600 0
DWIDTH 10 0
BBX 8 13 1 -4
BITMAP
3C
67
C1
80
80
80
C1
67
3C
10
1C
04
1C
ENDCHAR
STARTCHAR 00E8
ENCODING 232
SWIDTH 600 0
DWIDTH 10 0
BBX 8 12 1 0
BITMAP
30
10
00
3C
66
81
FF
80
80
C3
66
3C
ENDCHAR
STARTCHAR 00E9
ENCODING 233
SWIDTH 600 0
DWIDTH 10 0
BBX 8 12 1 0
BITMAP
0C
08
00
3C
66
81
FF
80
80
C3
66
3C
ENDCHAR
STARTCHAR 00EA
ENCODING 234
SWIDTH 600 0
DWIDTH 10 0
BBX 8 12 1 0
BITMAP
18
24
00
3C
66
81
FF
80
80
C3
66
3C
ENDCHAR
STARTCHAR 00EB
ENCODING 235
SWIDTH 600 0
DWIDTH 10 0
BBX 8 12 1 0
BITMAP
24
00
00
3C
66
81
FF
80
80
C3
66
3C
ENDCHAR
STARTCHAR 00EC
ENCODING 236
SWIDTH 180 0
DWIDTH 3 0
BBX 2 12 0 0
BITMAP
80
C0
00
40
40
40
40
40
40
40
40
40
ENDCHAR
STARTCHAR 00ED
ENCODING 237
SWIDTH 180 0
DWIDTH 3 0
BBX 2 12 1 0
BITMAP
C0
80
00
80
80
80
80
80
80
80
80
80
ENDCHAR
STARTCHAR 00EE
ENCODING 238
SWIDTH 180 0
DWIDTH 3 0
BBX 5 12 -1 0
BITMAP
70
D8
00
20
20
20
20
20
20
20
20
20
ENDCHAR
STARTCHAR 00EF
ENCODING 239
SWIDTH 180 0
DWIDTH 3 0
BBX 3 12 0 0
BITMAP
A0
00
00
40
40
40
40
40
40
40
40
40
ENDCHAR
STARTCHAR 00F0
ENCODING 240
SWIDTH 600 0
DWIDTH 10 0
BBX 8 13 1 0
BITMAP
20
1E
3C
26
3E
67
C3
81
81
81
C3
66
3C
ENDCHAR
STARTCHAR 00F1
ENCODING 241
SWIDTH 540 0
DWIDTH 9 0
BBX 7 12 1 0
BITMAP
7E
00
00
BC
E6
C2
82
82
82
82
82
82
ENDCHAR
STARTCHAR 00F2
ENCODING 242
SWIDTH 600 0
DWIDTH 10 0
BBX 8 12 1 0
BITMAP
30
10
00
3C
66
C3
81
81
81
C3
66
3C
ENDCHAR
STARTCHAR 00F3
ENCODING 243
SWIDTH 600 0
DWIDTH 10 0
BBX 8 12 1 0
BITMAP
08
08
00
3C
66
C3
81
81
81
C3
66
3C
ENDCHAR
STARTCHAR 00F4
ENCODING 244
SWIDTH 600 0
DWIDTH 10 0
BBX 8 12 1 0
BITMAP
18
24
00
3C
66
C3
81
81
81
C3
66
3C
ENDCHAR
STARTCHAR 00F5
ENCODING 245
SWIDTH 600 0
DWIDTH 10 0
BBX 8 12 1 0
BITMAP
3E
00
00
3C
66
C3
81
81
81
C3
66
3C
ENDCHAR
STARTCHAR 00F6
ENCODING 246
SWIDTH 600 0
DWIDTH 10 0
BBX 8 12 1 0
BITMAP
24
00
00
3C
66
C3
81
81
81
C3
66
3C
ENDCHAR
STARTCHAR 00F7
ENCODING 247
SWIDTH 540 0
DWIDTH 9 0
BBX 7 9 1 0
BITMAP
18
18
00
00
FE
00
00
18
18
ENDCHAR
STARTCHAR 00F8
ENCODING 248
SWIDTH 600 0
DWIDTH 10 0
BBX 8 9 1 0
BITMAP
3E
66
C7
89
99
91
E3
66
7C
ENDCHAR
STARTCHAR 00F9
ENCODING 249
SWIDTH 540 0
DWIDTH 9 0
BBX 7 12 1 0
BITMAP
20
30
00
82
82
82
82
82
82
86
CE
7A
ENDCHAR
STARTCHAR 00FA
ENCODING 250
SWIDTH 540 0
DWIDTH 9 0
BBX 7 12 1 0
BITMAP
18
10
00
82
82
82
82
82
82
86
CE
7A
ENDCHAR
STARTCHAR 00FB
ENCODING 251
SWIDTH 540 0
DWIDTH 9 0
BBX 7 12 1 0
BITMAP
38
6C
00
82
82
82
82
82
82
86
CE
7A
ENDCHAR
STARTCHAR 00FC
ENCODING 252
SWIDTH 540 0
DWIDTH 9 0
BBX 7 12 1 0
BITMAP
28
00
00
C2
C2
C2
C2
C2
C2
C6
EE
76
ENDCHAR
STARTCHAR 00FD
ENCODING 253
SWIDTH 540 0
DWIDTH 9 0
BBX 8 16 0 -4
BITMAP
0C
08
00
C1
43
62
22
26
34
1C
18
08
18
10
30
20
ENDCHAR
STARTCHAR 00FE
ENCODING 254
SWIDTH 600 0
DWIDTH 10 0
BBX 8 16 1 -4
BITMAP
80
80
80
BC
E6
C3
81
81
81
C3
E6
BC
80
80
80
80
ENDCHAR
STARTCHAR 00FF
ENCODING 255
SWIDTH 480 0
DWIDTH 8 0
BBX 8 16 0 -4
BITMAP
24
00
00
C3
C2
42
66
24
2C
38
18
18
10
30
20
20
ENDCHAR
STARTCHAR 0100
ENCODING 256
SWIDTH 660 0
DWIDTH 11 0
BBX 11 15 0 0
BITMAP
1F00
0000
0000
0E00
0E00
0A00
1B00
1100
3180
2080
3F80
60C0
4040
4040
C060
ENDCHAR
STARTCHAR 0101
ENCODING 257
SWIDTH 540 0
DWIDTH 9 0
BBX 7 12 1 0
BITMAP
7C
00
00
7C
CE
02
7E
C6
82
86
CE
7A
ENDCHAR
STARTCHAR 0102
ENCODING 258
SWIDTH 600 0
DWIDTH 10 0
BBX 10 16 0 0
BITMAP
1200
1200
0C00
0000
0C00
0C00
1E00
1200
1200
3300
2100
7F80
4080
4080
C0C0
C040
ENDCHAR
STARTCHAR 0103
ENCODING 259
SWIDTH 540 0
DWIDTH 9 0
BBX 7 12 1 0
BITMAP
78
00
00
7C
CE
02
7E
C6
82
86
CE
7A
ENDCHAR
STARTCHAR 0104
ENCODING 260
SWIDTH 720 0
DWIDTH 12 0
BBX 11 16 1 -4
BITMAP
0C00
1C00
1E00
1600
3200
3300
2300
6180
7F80
C080
C0C0
80C0
00C0
0080
00C0
00E0
ENDCHAR
STARTCHAR 0105
ENCODING 261
SWIDTH 540 0
DWIDTH 9 0
BBX 7 13 1 -4
BITMAP
7C
EE
06
02
7E
C6
86
CE
7A
06
04
06
06
ENDCHAR
STARTCHAR 0106
ENCODING 262
SWIDTH 720 0
DWIDTH 12 0
BBX 10 16 1 0
BITMAP
0200
0600
0000
0000
1F00
39C0
6040
C000
8000
8000
8000
8000
C000
6040
39C0
1F00
ENDCHAR
STARTCHAR 0107
ENCODING 263
SWIDTH 540 0
DWIDTH 9 0
BBX 7 12 1 0
BITMAP
0C
08
00
3C
66
C2
80
80
80
C2
66
3C
ENDCHAR
STARTCHAR 0108
ENCODING 264
SWIDTH 720 0
DWIDTH 12 0
BBX 10 16 1 0
BITMAP
0400
0E00
1900
0000
1F00
39C0
6040
C000
8000
8000
8000
8000
C000
6040
39C0
1F00
ENDCHAR
STARTCHAR 0109
ENCODING 265
SWIDTH 540 0
DWIDTH 9 0
BBX 7 12 1 0
BITMAP
18
24
00
3C
66
C2
80
80
80
C2
66
3C
ENDCHAR
STARTCHAR 010A
ENCODING 266
SWIDTH 720 0
DWIDTH 12 0
BBX 10 16 1 0
BITMAP
0400
0000
0000
0000
1F00
3380
6080
C000
8000
8000
8000
8000
C000
6040
33C0
1F00
ENDCHAR
STARTCHAR 010B
ENCODING 267
SWIDTH 540 0
DWIDTH 9 0
BBX 8 12 1 0
BITMAP
08
00
00
3C
66
C3
80
80
80
C3
66
3C
ENDCHAR
STARTCHAR 010C
ENCODING 268
SWIDTH 720 0
DWIDTH 12 0
BBX 10 16 1 0
BITMAP
1900
0E00
0400
0000
1F00
39C0
6040
C000
8000
8000
8000
8000
C000
6040
39C0
1F00
ENDCHAR
STARTCHAR 010D
ENCODING 269
SWIDTH 540 0
DWIDTH 9 0
BBX 7 12 1 0
BITMAP
3C
18
00
3C
66
C2
80
80
80
C2
66
3C
ENDCHAR
STARTCHAR 010E
ENCODING 270
SWIDTH 720 0
DWIDTH 12 0
BBX 9 16 2 0
BITMAP
6400
3800
1000
0000
FC00
8E00
8300
8180
8080
8080
8080
8080
8180
8300
8E00
FC00
ENDCHAR
STARTCHAR 010F
ENCODING 271
SWIDTH 660 0
DWIDTH 11 0
BBX 11 12 1 0
BITMAP
0160
0140
0140
3D00
6700
C300
8100
8100
8100
C300
6700
3D00
ENDCHAR
STARTCHAR 0110
ENCODING 272
SWIDTH 780 0
DWIDTH 13 0
BBX 11 12 1 0
BITMAP
3F00
2380
20C0
2060
2020
FC20
2020
2020
2060
20C0
2380
3F00
ENDCHAR
STARTCHAR 0111
ENCODING 273
SWIDTH 600 0
DWIDTH 10 0
BBX 9 12 1 0
BITMAP
0100
0F80
0100
3D00
6700
C300
8100
8100
8100
C300
6700
3D00
ENDCHAR
STARTCHAR 0112
ENCODING 274
SWIDTH 600 0
DWIDTH 10 0
BBX 7 15 2 0
BITMAP
7C
00
00
FE
80
80
80
80
FE
80
80
80
80
80
FE
ENDCHAR
STARTCHAR 0113
ENCODING 275
SWIDTH 600 0
DWIDTH 10 0
BBX 8 12 1 0
BITMAP
7C
00
00
3C
66
81
FF
80
80
C3
66
3C
ENDCHAR
STARTCHAR 0114
ENCODING 276
SWIDTH 600 0
DWIDTH 10 0
BBX 7 16 2 0
BITMAP
48
48
38
00
FE
80
80
80
80
FC
80
80
80
80
80
FE
ENDCHAR
STARTCHAR 0115
ENCODING 277
SWIDTH 600 0
DWIDTH 10 0
BBX 8 12 1 0
BITMAP
3C
00
00
3C
66
81
FF
80
80
C3
66
3C
ENDCHAR
STARTCHAR 0116
ENCODING 278
SWIDTH 600 0
DWIDTH 10 0
BBX 7 15 2 0
BITMAP
10
00
00
FE
80
80
80
80
FC
80
80
80
80
80
FE
ENDCHAR
STARTCHAR 0117
ENCODING 279
SWIDTH 600 0
DWIDTH 10 0
BBX 8 12 1 0
BITMAP
10
00
00
3C
66
81
FF
80
80
C3
66
3C
ENDCHAR
STARTCHAR 0118
ENCODING 280
SWIDTH 600 0
DWIDTH 10 0
BBX 7 16 2 -4
BITMAP
FE
80
80
80
80
FC
80
80
80
80
80
FE
0C
08
0C
0E
ENDCHAR
STARTCHAR 0119
ENCODING 281
SWIDTH 600 0
DWIDTH 10 0
BBX 8 13 1 -4
BITMAP
3C
66
C3
81
FF
80
80
67
3E
0C
08
08
0C
ENDCHAR
STARTCHAR 011A
ENCODING 282
SWIDTH 600 0
DWIDTH 10 0
BBX 7 16 2 0
BITMAP
4C
38
10
00
FE
80
80
80
80
FC
80
80
80
80
80
FE
ENDCHAR
STARTCHAR 011B
ENCODING 283
SWIDTH 600 0
DWIDTH 10 0
BBX 8 12 1 0
BITMAP
3C
18
00
3C
66
81
FF
80
80
C3
66
3C
ENDCHAR
STARTCHAR 011C
ENCODING 284
SWIDTH 840 0
DWIDTH 14 0
BBX 12 16 1 0
BITMAP
0600
0F00
0900
0000
1F80
39C0
6000
C000
8000
83F0
8010
8030
C030
6060
39C0
1F80
ENDCHAR
STARTCHAR 011D
ENCODING 285
SWIDTH 600 0
DWIDTH 10 0
BBX 8 16 1 -4
BITMAP
18
24
00
3D
67
C3
81
81
81
C3
67
3D
01
C3
66
3C
ENDCHAR
STARTCHAR 011E
ENCODING 286
SWIDTH 840 0
DWIDTH 14 0
BBX 12 16 1 0
BITMAP
0900
0F00
0000
0000
1F80
39C0
6000
C000
8000
83F0
8030
8030
C030
6060
39C0
1F80
ENDCHAR
STARTCHAR 011F
ENCODING 287
SWIDTH 600 0
DWIDTH 10 0
BBX 8 16 1 -4
BITMAP
3C
00
00
3D
67
C3
81
81
81
C3
67
3D
01
C3
66
3C
ENDCHAR
STARTCHAR 0120
ENCODING 288
SWIDTH 840 0
DWIDTH 14 0
BBX 12 16 1 0
BITMAP
0400
0000
0000
0000
1F80
39C0
6000
C000
8000
83F0
8030
8030
C030
6060
39C0
1F80
ENDCHAR
STARTCHAR 0121
ENCODING 289
SWIDTH 660 0
DWIDTH 11 0
BBX 9 16 1 -4
BITMAP
0800
0000
0000
3C80
7780
C180
8080
8080
8080
C180
7780
3C80
0080
C180
6300
3E00
ENDCHAR
STARTCHAR 0122
ENCODING 290
SWIDTH 840 0
DWIDTH 14 0
BBX 12 16 1 -4
BITMAP
1F80
39C0
6000
C000
8000
83F0
8030
8030
C030
6060
39C0
1F80
0000
0400
0400
0400
ENDCHAR
STARTCHAR 0123
ENCODING 291
SWIDTH 600 0
DWIDTH 10 0
BBX 8 17 1 -4
BITMAP
08
08
08
00
3D
67
C3
81
81
81
C3
67
3D
01
C3
66
3C
ENDCHAR
STARTCHAR 0124
ENCODING 292
SWIDTH 720 0
DWIDTH 12 0
BBX 9 16 2 0
BITMAP
0800
1400
2600
0000
8080
8080
8080
8080
8080
FF80
8080
8080
8080
8080
8080
8080
ENDCHAR
STARTCHAR 0125
ENCODING 293
SWIDTH 540 0
DWIDTH 9 0
BBX 7 16 1 0
BITMAP
10
28
6C
00
80
80
80
BC
EE
C6
82
82
82
82
82
82
ENDCHAR
STARTCHAR 0126
ENCODING 294
SWIDTH 780 0
DWIDTH 13 0
BBX 11 12 1 0
BITMAP
4040
4040
FFE0
4040
4040
7FC0
4040
4040
4040
4040
4040
4040
ENDCHAR
STARTCHAR 0127
ENCODING 295
SWIDTH 540 0
DWIDTH 9 0
BBX 8 12 0 0
BITMAP
40
F8
40
5E
77
63
41
41
41
41
41
41
ENDCHAR
STARTCHAR 0128
ENCODING 296
SWIDTH 300 0
DWIDTH 5 0
BBX 5 15 0 0
BITMAP
F8
00
00
20
20
20
20
20
20
20
20
20
20
20
20
ENDCHAR
STARTCHAR 0129
ENCODING 297
SWIDTH 240 0
DWIDTH 4 0
BBX 6 12 -1 0
BITMAP
FC
00
00
20
20
20
20
20
20
20
20
20
ENDCHAR
STARTCHAR 012A
ENCODING 298
SWIDTH 240 0
DWIDTH 4 0
BBX 4 15 0 0
BITMAP
F0
00
00
20
20
20
20
20
20
20
20
20
20
20
20
ENDCHAR
STARTCHAR 012B
ENCODING 299
SWIDTH 300 0
DWIDTH 5 0
BBX 5 12 0 0
BITMAP
F8
00
00
20
20
20
20
20
20
20
20
20
ENDCHAR
STARTCHAR 012C
ENCODING 300
SWIDTH 300 0
DWIDTH 5 0
BBX 5 16 0 0
BITMAP
98
D8
70
00
20
20
20
20
20
20
20
20
20
20
20
20
ENDCHAR
STARTCHAR 012D
ENCODING 301
SWIDTH 300 0
DWIDTH 5 0
BBX 5 12 0 0
BITMAP
F8
00
00
20
20
20
20
20
20
20
20
20
ENDCHAR
STARTCHAR 012E
ENCODING 302
SWIDTH 240 0
DWIDTH 4 0
BBX 2 16 1 -4
BITMAP
40
40
40
40
40
40
40
40
40
40
40
40
C0
80
80
C0
ENDCHAR
STARTCHAR 012F
ENCODING 303
SWIDTH 240 0
DWIDTH 4 0
BBX 2 16 1 -4
BITMAP
C0
C0
00
40
40
40
40
40
40
40
40
40
C0
80
80
C0
ENDCHAR
STARTCHAR 0130
ENCODING 304
SWIDTH 240 0
DWIDTH 4 0
BBX 1 15 2 0
BITMAP
80
00
00
80
80
80
80
80
80
80
80
80
80
80
80
ENDCHAR
STARTCHAR 0131
ENCODING 305
SWIDTH 180 0
DWIDTH 3 0
BBX 1 9 1 0
BITMAP
80
80
80
80
80
80
80
80
80
ENDCHAR
STARTCHAR 0134
ENCODING 308
SWIDTH 540 0
DWIDTH 9 0
BBX 9 16 1 0
BITMAP
0200
0500
0980
0000
0200
0200
0200
0200
0200
0200
0200
0200
0200
8600
EC00
3800
ENDCHAR
STARTCHAR 0135
ENCODING 309
SWIDTH 180 0
DWIDTH 3 0
BBX 5 16 -1 -4
BITMAP
70
D8
00
20
20
20
20
20
20
20
20
20
20
20
60
C0
ENDCHAR
STARTCHAR 0136
ENCODING 310
SWIDTH 600 0
DWIDTH 10 0
BBX 8 16 2 -4
BITMAP
83
86
8C
98
90
B0
F8
C8
8C
86
82
83
00
10
10
10
ENDCHAR
STARTCHAR 0137
ENCODING 311
SWIDTH 480 0
DWIDTH 8 0
BBX 7 16 1 -4
BITMAP
80
80
80
86
8C
98
B0
F0
C8
8C
84
86
00
10
10
10
ENDCHAR
STARTCHAR 0138
ENCODING 312
SWIDTH 480 0
DWIDTH 8 0
BBX 6 9 1 0
BITMAP
8C
98
90
A0
E0
B0
98
88
84
ENDCHAR
STARTCHAR 0139
ENCODING 313
SWIDTH 540 0
DWIDTH 9 0
BBX 6 15 2 0
BITMAP
C0
80
00
80
80
80
80
80
80
80
80
80
80
80
FC
ENDCHAR
STARTCHAR 013A
ENCODING 314
SWIDTH 180 0
DWIDTH 3 0
BBX 2 15 1 0
BITMAP
C0
80
00
80
80
80
80
80
80
80
80
80
80
80
80
ENDCHAR
STARTCHAR 013B
ENCODING 315
SWIDTH 540 0
DWIDTH 9 0
BBX 7 16 2 -4
BITMAP
80
80
80
80
80
80
80
80
80
80
80
FE
00
10
10
10
ENDCHAR
STARTCHAR 013C
ENCODING 316
SWIDTH 180 0
DWIDTH 3 0
BBX 1 16 1 -4
BITMAP
80
80
80
80
80
80
80
80
80
80
80
80
00
80
80
80
ENDCHAR
STARTCHAR 013D
ENCODING 317
SWIDTH 540 0
DWIDTH 9 0
BBX 6 12 2 0
BITMAP
88
88
88
80
80
80
80
80
80
80
80
FC
ENDCHAR
STARTCHAR 013E
ENCODING 318
SWIDTH 300 0
DWIDTH 5 0
BBX 4 12 1 0
BITMAP
90
90
90
80
80
80
80
80
80
80
80
80
ENDCHAR
STARTCHAR 013F
ENCODING 319
SWIDTH 540 0
DWIDTH 9 0
BBX 6 12 2 0
BITMAP
80
80
80
80
80
98
98
80
80
80
80
FC
ENDCHAR
STARTCHAR 0141
ENCODING 321
SWIDTH 600 0
DWIDTH 10 0
BBX 8 12 1 0
BITMAP
20
20
20
20
2C
30
60
A0
20
20
20
3F
ENDCHAR
STARTCHAR 0142
ENCODING 322
SWIDTH 420 0
DWIDTH 7 0
BBX 5 12 1 0
BITMAP
20
20
20
20
38
60
E0
20
20
20
20
20
ENDCHAR
STARTCHAR 0143
ENCODING 323
SWIDTH 720 0
DWIDTH 12 0
BBX 9 15 2 0
BITMAP
0400
0C00
0000
C080
C080
E080
B080
9080
9880
8C80
8480
8680
8380
8180
8180
ENDCHAR
STARTCHAR 0144
ENCODING 324
SWIDTH 540 0
DWIDTH 9 0
BBX 7 12 1 0
BITMAP
08
18
00
BC
E6
C2
82
82
82
82
82
82
ENDCHAR
STARTCHAR 0145
ENCODING 325
SWIDTH 720 0
DWIDTH 12 0
BBX 9 16 2 -4
BITMAP
C080
E080
E080
B080
9080
9880
8C80
8480
8680
8380
8180
8180
0000
0800
0800
0800
ENDCHAR
STARTCHAR 0146
ENCODING 326
SWIDTH 540 0
DWIDTH 9 0
BBX 7 13 1 -4
BITMAP
BC
E6
C2
82
82
82
82
82
82
00
10
10
10
ENDCHAR
STARTCHAR 0147
ENCODING 327
SWIDTH 720 0
DWIDTH 12 0
BBX 9 16 2 0
BITMAP
3200
1C00
0800
0000
C080
C080
E080
B080
9080
9880
8C80
8480
8680
8380
8180
8180
ENDCHAR
STARTCHAR 0148
ENCODING 328
SWIDTH 540 0
DWIDTH 9 0
BBX 7 12 1 0
BITMAP
2C
10
00
BC
E6
C2
82
82
82
82
82
82
ENDCHAR
STARTCHAR 014A
ENCODING 330
SWIDTH 720 0
DWIDTH 12 0
BBX 9 16 2 -4
BITMAP
C080
C080
E080
B080
9080
9880
8C80
8480
8680
8380
8180
8180
0080
0080
0180
0300
ENDCHAR
STARTCHAR 014B
ENCODING 331
SWIDTH 540 0
DWIDTH 9 0
BBX 7 13 1 -4
BITMAP
BC
EE
C6
82
82
82
82
82
82
02
02
06
0C
ENDCHAR
STARTCHAR 014C
ENCODING 332
SWIDTH 840 0
DWIDTH 14 0
BBX 12 15 1 0
BITMAP
1F00
0000
0000
1F00
39C0
6060
C030
8030
8010
8010
8030
C030
6060
39C0
1F00
ENDCHAR
STARTCHAR 014D
ENCODING 333
SWIDTH 600 0
DWIDTH 10 0
BBX 8 12 1 0
BITMAP
3E
00
00
3C
66
C3
81
81
81
C3
66
3C
ENDCHAR
STARTCHAR 014E
ENCODING 334
SWIDTH 840 0
DWIDTH 14 0
BBX 12 16 1 0
BITMAP
0900
0F00
0000
0000
1F00
39C0
6060
C030
8030
8010
8010
8030
C030
6060
39C0
1F00
ENDCHAR
STARTCHAR 014F
ENCODING 335
SWIDTH 600 0
DWIDTH 10 0
BBX 8 12 1 0
BITMAP
3C
00
00
3C
66
C3
81
81
81
C3
66
3C
ENDCHAR
STARTCHAR 0150
ENCODING 336
SWIDTH 840 0
DWIDTH 14 0
BBX 12 16 1 0
BITMAP
0580
0D00
0000
0000
1F00
39C0
6060
C030
8030
8010
8010
8030
C030
6060
39C0
1F00
ENDCHAR
STARTCHAR 0151
ENCODING 337
SWIDTH 600 0
DWIDTH 10 0
BBX 8 12 1 0
BITMAP
16
34
00
3C
66
C3
81
81
81
C3
66
3C
ENDCHAR
STARTCHAR 0152
ENCODING 338
SWIDTH 1140 0
DWIDTH 19 0
BBX 17 12 1 0
BITMAP
1F9F80
39D000
607000
C03000
803000
801F80
801000
803000
C03000
607000
39D000
1F9F80
ENDCHAR
STARTCHAR 0153
ENCODING 339
SWIDTH 1020 0
DWIDTH 17 0
BBX 15 9 1 0
BITMAP
3C78
66CC
C302
81FE
8100
8100
C386
66CC
3C78
ENDCHAR
STARTCHAR 0154
ENCODING 340
SWIDTH 600 0
DWIDTH 10 0
BBX 7 15 2 0
BITMAP
10
10
00
F8
8C
86
82
82
86
FC
98
88
8C
86
82
ENDCHAR
STARTCHAR 0155
ENCODING 341
SWIDTH 360 0
DWIDTH 6 0
BBX 5 12 1 0
BITMAP
30
20
00
B8
E8
C0
80
80
80
80
80
80
ENDCHAR
STARTCHAR 0156
ENCODING 342
SWIDTH 600 0
DWIDTH 10 0
BBX 7 16 2 -4
BITMAP
F8
8C
86
82
82
86
FC
98
88
8C
86
82
00
10
10
10
ENDCHAR
STARTCHAR 0157
ENCODING 343
SWIDTH 360 0
DWIDTH 6 0
BBX 5 13 1 -4
BITMAP
B8
E8
C0
80
80
80
80
80
80
00
80
80
80
ENDCHAR
STARTCHAR 0158
ENCODING 344
SWIDTH 600 0
DWIDTH 10 0
BBX 7 16 2 0
BITMAP
48
30
30
00
F8
8C
86
82
82
86
FC
98
88
8C
86
82
ENDCHAR
STARTCHAR 0159
ENCODING 345
SWIDTH 360 0
DWIDTH 6 0
BBX 5 12 1 0
BITMAP
D0
60
00
B8
E8
C0
80
80
80
80
80
80
ENDCHAR
STARTCHAR 015A
ENCODING 346
SWIDTH 540 0
DWIDTH 9 0
BBX 8 16 0 0
BITMAP
0C
08
00
00
3C
66
42
40
60
3C
0E
03
41
C1
67
3C
ENDCHAR
STARTCHAR 015B
ENCODING 347
SWIDTH 480 0
DWIDTH 8 0
BBX 6 12 1 0
BITMAP
10
30
00
78
CC
80
C0
78
0C
84
CC
78
ENDCHAR
STARTCHAR 015C
ENCODING 348
SWIDTH 540 0
DWIDTH 9 0
BBX 8 16 0 0
BITMAP
08
1C
24
00
3C
66
42
40
60
3C
0E
03
41
C1
67
3C
ENDCHAR
STARTCHAR 015D
ENCODING 349
SWIDTH 480 0
DWIDTH 8 0
BBX 6 12 1 0
BITMAP
30
58
00
78
CC
80
C0
78
0C
84
CC
78
ENDCHAR
STARTCHAR 015E
ENCODING 350
SWIDTH 540 0
DWIDTH 9 0
BBX 8 16 0 -4
BITMAP
3C
66
42
40
60
3C
0E
03
41
C1
67
3C
10
1C
04
1C
ENDCHAR
STARTCHAR 015F
ENCODING 351
SWIDTH 480 0
DWIDTH 8 0
BBX 6 13 1 -4
BITMAP
78
CC
80
C0
78
0C
84
CC
78
20
38
08
38
ENDCHAR
STARTCHAR 0160
ENCODING 352
SWIDTH 540 0
DWIDTH 9 0
BBX 8 16 0 0
BITMAP
24
1C
08
00
3C
66
42
40
60
3C
0E
03
41
C1
67
3C
ENDCHAR
STARTCHAR 0161
ENCODING 353
SWIDTH 480 0
DWIDTH 8 0
BBX 6 12 1 0
BITMAP
58
30
00
78
CC
80
C0
78
0C
84
CC
78
ENDCHAR
STARTCHAR 0162
ENCODING 354
SWIDTH 600 0
DWIDTH 10 0
BBX 8 16 1 -4
BITMAP
FF
08
08
08
08
08
08
08
08
08
08
08
08
1C
04
0C
ENDCHAR
STARTCHAR 0163
ENCODING 355
SWIDTH 420 0
DWIDTH 7 0
BBX 5 16 1 -4
BITMAP
20
20
20
F8
20
20
20
20
20
20
30
38
20
38
08
38
ENDCHAR
STARTCHAR 0164
ENCODING 356
SWIDTH 600 0
DWIDTH 10 0
BBX 8 16 1 0
BITMAP
26
1C
08
00
FF
08
08
08
08
08
08
08
08
08
08
08
ENDCHAR
STARTCHAR 0165
ENCODING 357
SWIDTH 420 0
DWIDTH 7 0
BBX 5 12 1 0
BITMAP
08
28
20
F8
20
20
20
20
20
20
30
38
ENDCHAR
STARTCHAR 0166
ENCODING 358
SWIDTH 600 0
DWIDTH 10 0
BBX 8 12 1 0
BITMAP
FF
08
08
08
08
7E
08
08
08
08
08
08
ENDCHAR
STARTCHAR 0167
ENCODING 359
SWIDTH 420 0
DWIDTH 7 0
BBX 5 12 1 0
BITMAP
20
20
20
F8
20
20
20
F8
20
20
30
38
ENDCHAR
STARTCHAR 0168
ENCODING 360
SWIDTH 600 0
DWIDTH 10 0
BBX 8 16 1 0
BITMAP
32
6E
00
00
81
81
81
81
81
81
81
81
81
C1
66
3C
ENDCHAR
STARTCHAR 0169
ENCODING 361
SWIDTH 540 0
DWIDTH 9 0
BBX 7 12 1 0
BITMAP
FC
00
00
82
82
82
82
82
82
86
CE
7A
ENDCHAR
STARTCHAR 016A
ENCODING 362
SWIDTH 600 0
DWIDTH 10 0
BBX 8 15 1 0
BITMAP
3E
00
00
81
81
81
81
81
81
81
81
81
C3
66
3C
ENDCHAR
STARTCHAR 016B
ENCODING 363
SWIDTH 540 0
DWIDTH 9 0
BBX 7 12 1 0
BITMAP
7C
00
00
82
82
82
82
82
82
86
CE
7A
ENDCHAR
STARTCHAR 016C
ENCODING 364
SWIDTH 600 0
DWIDTH 10 0
BBX 8 16 1 0
BITMAP
24
3C
00
00
81
81
81
81
81
81
81
81
81
C3
66
3C
ENDCHAR
STARTCHAR 016D
ENCODING 365
SWIDTH 540 0
DWIDTH 9 0
BBX 7 12 1 0
BITMAP
78
00
00
82
82
82
82
82
82
86
CE
7A
ENDCHAR
STARTCHAR 016E
ENCODING 366
SWIDTH 600 0
DWIDTH 10 0
BBX 8 17 1 0
BITMAP
38
2C
24
3C
00
81
81
81
81
81
81
81
81
81
C3
66
3C
ENDCHAR
STARTCHAR 016F
ENCODING 367
SWIDTH 540 0
DWIDTH 9 0
BBX 7 14 1 0
BITMAP
38
28
28
38
00
82
82
82
82
82
82
86
CE
7A
ENDCHAR
STARTCHAR 0170
ENCODING 368
SWIDTH 600 0
DWIDTH 10 0
BBX 8 16 1 0
BITMAP
14
14
00
00
81
81
81
81
81
81
81
81
81
C3
66
3C
ENDCHAR
STARTCHAR 0171
ENCODING 369
SWIDTH 540 0
DWIDTH 9 0
BBX 7 12 1 0
BITMAP
34
2C
00
82
82
82
82
82
82
86
CE
7A
ENDCHAR
STARTCHAR 0172
ENCODING 370
SWIDTH 600 0
DWIDTH 10 0
BBX 8 16 1 -4
BITMAP
81
81
81
81
81
81
81
81
81
C3
66
3E
0C
08
08
0C
ENDCHAR
STARTCHAR 0173
ENCODING 371
SWIDTH 540 0
DWIDTH 9 0
BBX 7 13 1 -4
BITMAP
82
82
82
82
82
82
86
CE
7A
06
04
04
06
ENDCHAR
STARTCHAR 0174
ENCODING 372
SWIDTH 960 0
DWIDTH 16 0
BBX 15 16 0 0
BITMAP
0180
0380
0240
0000
C182
4182
4386
63C6
6244
2244
266C
3468
1428
1C28
1838
1810
ENDCHAR
STARTCHAR 0175
ENCODING 373
SWIDTH 780 0
DWIDTH 13 0
BBX 13 12 0 0
BITMAP
0700
0D80
0000
C218
4710
4510
6530
6DA0
28A0
28A0
38E0
10C0
ENDCHAR
STARTCHAR 0176
ENCODING 374
SWIDTH 600 0
DWIDTH 10 0
BBX 9 16 1 0
BITMAP
0800
1C00
2600
0000
C180
4100
6300
2600
3400
1C00
0800
0800
0800
0800
0800
0800
ENDCHAR
STARTCHAR 0177
ENCODING 375
SWIDTH 540 0
DWIDTH 9 0
BBX 8 16 0 -4
BITMAP
18
26
00
C1
43
62
22
26
34
1C
18
08
18
10
30
20
ENDCHAR
STARTCHAR 0178
ENCODING 376
SWIDTH 600 0
DWIDTH 10 0
BBX 8 15 1 0
BITMAP
34
00
00
81
C3
62
26
34
1C
08
08
08
08
08
08
ENDCHAR
STARTCHAR 0179
ENCODING 377
SWIDTH 600 0
DWIDTH 10 0
BBX 8 15 1 0
BITMAP
08
08
00
FF
03
06
06
0C
18
10
30
60
40
C0
FF
ENDCHAR
STARTCHAR 017A
ENCODING 378
SWIDTH 540 0
DWIDTH 9 0
BBX 7 12 1 0
BITMAP
08
18
00
FE
06
0C
18
10
20
60
C0
FE
ENDCHAR
STARTCHAR 017B
ENCODING 379
SWIDTH 600 0
DWIDTH 10 0
BBX 8 15 1 0
BITMAP
08
00
00
FF
03
02
06
0C
08
18
30
60
40
C0
FF
ENDCHAR
STARTCHAR 017C
ENCODING 380
SWIDTH 540 0
DWIDTH 9 0
BBX 7 12 1 0
BITMAP
10
00
00
FE
06
0C
18
30
30
60
C0
FE
ENDCHAR
STARTCHAR 017D
ENCODING 381
SWIDTH 600 0
DWIDTH 10 0
BBX 8 16 1 0
BITMAP
24
3C
18
00
FF
03
06
06
0C
18
10
30
60
40
C0
FF
ENDCHAR
STARTCHAR 017E
ENCODING 382
SWIDTH 540 0
DWIDTH 9 0
BBX 7 12 1 0
BITMAP
28
10
00
FE
06
0C
18
10
20
60
C0
FE
ENDCHAR
STARTCHAR 0192
ENCODING 402
SWIDTH 600 0
DWIDTH 10 0
BBX 9 16 1 -4
BITMAP
0380
0680
0400
0C00
0C00
3F00
0800
0800
1800
1800
1800
1000
1000
3000
3000
E000
ENDCHAR
STARTCHAR 01FA
ENCODING 506
SWIDTH 660 0
DWIDTH 11 0
BBX 11 16 0 0
BITMAP
0400
0400
0A00
0A00
0E00
0E00
0A00
1B00
1100
3100
3180
3F80
6080
40C0
4040
C060
ENDCHAR
STARTCHAR 01FB
ENCODING 507
SWIDTH 540 0
DWIDTH 9 0
BBX 7 16 1 0
BITMAP
10
00
38
28
28
38
00
7C
CE
02
7E
C6
82
86
CE
7A
ENDCHAR
STARTCHAR 01FC
ENCODING 508
SWIDTH 960 0
DWIDTH 16 0
BBX 15 15 0 0
BITMAP
0010
0030
0000
01FE
0380
0680
0480
0C80
08FC
1080
3F80
2080
6080
4080
C0FE
ENDCHAR
STARTCHAR 01FD
ENCODING 509
SWIDTH 960 0
DWIDTH 16 0
BBX 14 12 1 0
BITMAP
0100
0300
0000
7CF0
EF98
0204
7FFC
C600
8200
870C
CD98
78F0
ENDCHAR
STARTCHAR 01FE
ENCODING 510
SWIDTH 840 0
DWIDTH 14 0
BBX 12 16 1 0
BITMAP
0200
0200
0000
0040
1F40
39C0
60E0
C130
8330
8210
8410
8C30
C830
7060
39C0
3F00
ENDCHAR
STARTCHAR 01FF
ENCODING 511
SWIDTH 600 0
DWIDTH 10 0
BBX 8 12 1 0
BITMAP
08
08
00
3E
66
C7
89
99
91
E3
66
7C
ENDCHAR
STARTCHAR 0218
ENCODING 536
SWIDTH 540 0
DWIDTH 9 0
BBX 8 15 0 -4
BITMAP
3C
66
42
40
60
3C
0E
03
41
C1
67
3C
00
08
08
ENDCHAR
STARTCHAR 0219
ENCODING 537
SWIDTH 480 0
DWIDTH 8 0
BBX 6 12 1 -4
BITMAP
78
CC
80
C0
78
0C
84
CC
78
00
10
10
ENDCHAR
STARTCHAR 021A
ENCODING 538
SWIDTH 600 0
DWIDTH 10 0
BBX 8 16 1 -4
BITMAP
FF
08
08
08
08
08
08
08
08
08
08
08
00
08
08
08
ENDCHAR
STARTCHAR 021B
ENCODING 539
SWIDTH 420 0
DWIDTH 7 0
BBX 5 15 1 -4
BITMAP
20
20
20
F8
20
20
20
20
20
20
30
38
00
10
10
ENDCHAR
STARTCHAR 0237
ENCODING 567
SWIDTH 180 0
DWIDTH 3 0
BBX 3 13 -1 -4
BITMAP
20
20
20
20
20
20
20
20
20
20
20
60
C0
ENDCHAR
STARTCHAR 0259
ENCODING 601
SWIDTH 600 0
DWIDTH 10 0
BBX 8 9 1 0
BITMAP
3C
E6
03
01
FF
81
83
66
3C
ENDCHAR
STARTCHAR 02C6
ENCODING 710
SWIDTH 420 0
DWIDTH 7 0
BBX 4 2 1 10
BITMAP
60
D0
ENDCHAR
STARTCHAR 02C7
ENCODING 711
SWIDTH 420 0
DWIDTH 7 0
BBX 4 2 1 10
BITMAP
D0
60
ENDCHAR
STARTCHAR 02D8
ENCODING 728
SWIDTH 360 0
DWIDTH 6 0
BBX 4 2 1 10
BITMAP
90
F0
ENDCHAR
STARTCHAR 02D9
ENCODING 729
SWIDTH 180 0
DWIDTH 3 0
BBX 1 1 1 11
BITMAP
80
ENDCHAR
STARTCHAR 02DA
ENCODING 730
SWIDTH 420 0
DWIDTH 7 0
BBX 3 3 2 10
BITMAP
E0
A0
E0
ENDCHAR
STARTCHAR 02DB
ENCODING 731
SWIDTH 420 0
DWIDTH 7 0
BBX 3 4 2 -4
BITMAP
40
80
80
E0
ENDCHAR
STARTCHAR 02DC
ENCODING 732
SWIDTH 420 0
DWIDTH 7 0
BBX 5 2 1 11
BITMAP
68
B8
ENDCHAR
STARTCHAR 02DD
ENCODING 733
SWIDTH 360 0
DWIDTH 6 0
BBX 5 2 1 10
BITMAP
58
D0
ENDCHAR
STARTCHAR 0300
ENCODING 768
SWIDTH 0 0
DWIDTH 0 0
BBX 2 2 -5 10
BITMAP
C0
40
ENDCHAR
STARTCHAR 0301
ENCODING 769
SWIDTH 0 0
DWIDTH 0 0
BBX 2 2 -4 10
BITMAP
40
80
ENDCHAR
STARTCHAR 0302
ENCODING 770
SWIDTH 0 0
DWIDTH 0 0
BBX 4 2 -5 11
BITMAP
60
B0
ENDCHAR
STARTCHAR 0303
ENCODING 771
SWIDTH 0 0
DWIDTH 0 0
BBX 6 2 -6 11
BITMAP
64
B8
ENDCHAR
STARTCHAR 0304
ENCODING 772
SWIDTH 0 0
DWIDTH 0 0
BBX 5 1 -6 11
BITMAP
F8
ENDCHAR
STARTCHAR 0306
ENCODING 774
SWIDTH 0 0
DWIDTH 0 0
BBX 4 2 -5 11
BITMAP
90
F0
ENDCHAR
STARTCHAR 0307
ENCODING 775
SWIDTH 0 0
DWIDTH 0 0
BBX 1 1 -2 11
BITMAP
80
ENDCHAR
STARTCHAR 0308
ENCODING 776
SWIDTH 0 0
DWIDTH 0 0
BBX 4 1 -5 11
BITMAP
90
ENDCHAR
STARTCHAR 030A
ENCODING 778
SWIDTH 0 0
DWIDTH 0 0
BBX 3 3 -5 10
BITMAP
E0
A0
E0
ENDCHAR
STARTCHAR 030B
ENCODING 779
SWIDTH 0 0
DWIDTH 0 0
BBX 4 2 -5 10
BITMAP
D0
90
ENDCHAR
STARTCHAR 030C
ENCODING 780
SWIDTH 0 0
DWIDTH 0 0
BBX 4 2 -5 11
BITMAP
B0
60
ENDCHAR
STARTCHAR 0312
ENCODING 786
SWIDTH 0 0
DWIDTH 0 0
BBX 1 3 -4 10
BITMAP
80
80
80
ENDCHAR
STARTCHAR 0326
ENCODING 806
SWIDTH 0 0
DWIDTH 0 0
BBX 1 3 -4 -4
BITMAP
80
80
80
ENDCHAR
STARTCHAR 0327
ENCODING 807
SWIDTH 0 0
DWIDTH 0 0
BBX 3 4 -5 -4
BITMAP
80
E0
20
E0
ENDCHAR
STARTCHAR 0328
ENCODING 808
SWIDTH 0 0
DWIDTH 0 0
BBX 3 4 -5 -4
BITMAP
40
80
80
E0
ENDCHAR
STARTCHAR 0374
ENCODING 884
SWIDTH 300 0
DWIDTH 5 0
BBX 3 4 1 8
BITMAP
60
C0
80
80
ENDCHAR
STARTCHAR 0375
ENCODING 885
SWIDTH 300 0
DWIDTH 5 0
BBX 3 4 1 -1
BITMAP
20
40
C0
C0
ENDCHAR
STARTCHAR 037E
ENCODING 894
SWIDTH 240 0
DWIDTH 4 0
BBX 2 11 1 -2
BITMAP
C0
C0
00
00
00
00
00
C0
C0
80
80
ENDCHAR
STARTCHAR 0384
ENCODING 900
SWIDTH 420 0
DWIDTH 7 0
BBX 2 2 2 10
BITMAP
40
C0
ENDCHAR
STARTCHAR 0385
ENCODING 901
SWIDTH 420 0
DWIDTH 7 0
BBX 5 2 1 10
BITMAP
A8
20
ENDCHAR
STARTCHAR 0386
ENCODING 902
SWIDTH 660 0
DWIDTH 11 0
BBX 11 12 0 0
BITMAP
2600
6E00
0A00
1B00
1100
1100
3180
3F80
20C0
6040
4040
C060
ENDCHAR
STARTCHAR 0387
ENCODING 903
SWIDTH 240 0
DWIDTH 4 0
BBX 2 2 1 4
BITMAP
C0
C0
ENDCHAR
STARTCHAR 0388
ENCODING 904
SWIDTH 600 0
DWIDTH 10 0
BBX 10 12 -1 0
BITMAP
DFC0
9000
1000
1000
1000
1F80
1000
1000
1000
1000
1000
1FC0
ENDCHAR
STARTCHAR 0389
ENCODING 905
SWIDTH 720 0
DWIDTH 12 0
BBX 12 12 -1 0
BITMAP
D010
9010
1010
1010
1010
1FF0
1010
1010
1010
1010
1010
1010
ENDCHAR
STARTCHAR 038A
ENCODING 906
SWIDTH 240 0
DWIDTH 4 0
BBX 4 12 -1 0
BITMAP
D0
90
10
10
10
10
10
10
10
10
10
10
ENDCHAR
STARTCHAR 038C
ENCODING 908
SWIDTH 840 0
DWIDTH 14 0
BBX 13 12 0 0
BITMAP
CF80
9CE0
3030
6018
4018
4008
4008
4018
6018
3030
1CE0
0F80
ENDCHAR
STARTCHAR 038E
ENCODING 910
SWIDTH 660 0
DWIDTH 11 0
BBX 12 12 -1 0
BITMAP
5830
C820
0C60
04C0
0680
0380
0100
0100
0100
0100
0100
0100
ENDCHAR
STARTCHAR 038F
ENCODING 911
SWIDTH 780 0
DWIDTH 13 0
BBX 12 12 0 0
BITMAP
CF80
98C0
2060
6030
4010
4010
4010
6030
6020
38E0
0D80
7DF0
ENDCHAR
STARTCHAR 0390
ENCODING 912
SWIDTH 240 0
DWIDTH 4 0
BBX 5 13 0 0
BITMAP
20
A8
00
00
20
20
20
20
20
20
20
20
20
ENDCHAR
STARTCHAR 0391
ENCODING 913
SWIDTH 660 0
DWIDTH 11 0
BBX 11 12 0 0
BITMAP
0600
0E00
0A00
1B00
1100
1100
3180
3F80
20C0
6040
4040
C060
ENDCHAR
STARTCHAR 0392
ENCODING 914
SWIDTH 660 0
DWIDTH 11 0
BBX 8 12 2 0
BITMAP
FC
86
82
82
86
F8
86
83
81
83
86
FC
ENDCHAR
STARTCHAR 0393
ENCODING 915
SWIDTH 540 0
DWIDTH 9 0
BBX 6 12 2 0
BITMAP
FC
80
80
80
80
80
80
80
80
80
80
80
ENDCHAR
STARTCHAR 0394
ENCODING 916
SWIDTH 660 0
DWIDTH 11 0
BBX 11 12 0 0
BITMAP
0C00
0E00
0A00
1B00
1100
1100
3180
2080
2080
60C0
4040
FFE0
ENDCHAR
STARTCHAR 0395
ENCODING 917
SWIDTH 600 0
DWIDTH 10 0
BBX 7 12 2 0
BITMAP
FE
80
80
80
80
FC
80
80
80
80
80
FE
ENDCHAR
STARTCHAR 0396
ENCODING 918
SWIDTH 600 0
DWIDTH 10 0
BBX 8 12 1 0
BITMAP
FF
03
06
06
0C
18
10
30
60
40
C0
FF
ENDCHAR
STARTCHAR 0397
ENCODING 919
SWIDTH 720 0
DWIDTH 12 0
BBX 9 12 2 0
BITMAP
8080
8080
8080
8080
8080
FF80
8080
8080
8080
8080
8080
8080
ENDCHAR
STARTCHAR 0398
ENCODING 920
SWIDTH 840 0
DWIDTH 14 0
BBX 12 12 1 0
BITMAP
1F00
39C0
6060
C030
8030
9F10
8010
8030
C030
6060
39C0
1F00
ENDCHAR
STARTCHAR 0399
ENCODING 921
SWIDTH 240 0
DWIDTH 4 0
BBX 1 12 2 0
BITMAP
80
80
80
80
80
80
80
80
80
80
80
80
ENDCHAR
STARTCHAR 039A
ENCODING 922
SWIDTH 660 0
DWIDTH 11 0
BBX 8 12 2 0
BITMAP
83
86
8C
98
B0
A0
E0
B0
98
8C
86
83
ENDCHAR
STARTCHAR 039B
ENCODING 923
SWIDTH 660 0
DWIDTH 11 0
BBX 10 12 0 0
BITMAP
0C00
0E00
0A00
1B00
1300
1100
3180
2180
2080
60C0
40C0
C040
ENDCHAR
STARTCHAR 039C
ENCODING 924
SWIDTH 840 0
DWIDTH 14 0
BBX 11 12 2 0
BITMAP
C060
C0E0
E0A0
A0A0
A1A0
B120
9120
9B20
8A20
8A20
8E20
8420
ENDCHAR
STARTCHAR 039D
ENCODING 925
SWIDTH 720 0
DWIDTH 12 0
BBX 9 12 2 0
BITMAP
C080
C080
E080
B080
9080
9880
8C80
8480
8680
8380
8180
8180
ENDCHAR
STARTCHAR 039E
ENCODING 926
SWIDTH 540 0
DWIDTH 9 0
BBX 7 12 1 0
BITMAP
FE
00
00
00
00
7E
00
00
00
00
00
FE
ENDCHAR
STARTCHAR 039F
ENCODING 927
SWIDTH 840 0
DWIDTH 14 0
BBX 12 12 1 0
BITMAP
1F00
39C0
6060
C030
8030
8010
8010
8030
C030
6060
39C0
1F00
ENDCHAR
STARTCHAR 03A0
ENCODING 928
SWIDTH 660 0
DWIDTH 11 0
BBX 8 12 2 0
BITMAP
FF
81
81
81
81
81
81
81
81
81
81
81
ENDCHAR
STARTCHAR 03A1
ENCODING 929
SWIDTH 600 0
DWIDTH 10 0
BBX 7 12 2 0
BITMAP
F8
8C
86
82
82
86
FC
80
80
80
80
80
ENDCHAR
STARTCHAR 03A3
ENCODING 931
SWIDTH 540 0
DWIDTH 9 0
BBX 7 12 1 0
BITMAP
FE
C0
40
20
30
18
18
30
20
40
C0
FE
ENDCHAR
STARTCHAR 03A4
ENCODING 932
SWIDTH 600 0
DWIDTH 10 0
BBX 8 12 1 0
BITMAP
FF
08
08
08
08
08
08
08
08
08
08
08
ENDCHAR
STARTCHAR 03A5
ENCODING 933
SWIDTH 600 0
DWIDTH 10 0
BBX 9 12 1 0
BITMAP
C180
4100
6300
2600
3400
1C00
0800
0800
0800
0800
0800
0800
ENDCHAR
STARTCHAR 03A6
ENCODING 934
SWIDTH 780 0
DWIDTH 13 0
BBX 11 12 1 0
BITMAP
0400
1F00
75C0
C440
8460
8420
8420
8460
C440
75C0
1F00
0400
ENDCHAR
STARTCHAR 03A7
ENCODING 935
SWIDTH 660 0
DWIDTH 11 0
BBX 9 12 1 0
BITMAP
C180
4300
6200
2600
3C00
1800
1C00
3400
2600
6300
C100
8180
ENDCHAR
STARTCHAR 03A8
ENCODING 936
SWIDTH 660 0
DWIDTH 11 0
BBX 9 12 1 0
BITMAP
8880
8880
8880
8880
8880
8880
8980
C900
7E00
0800
0800
0800
ENDCHAR
STARTCHAR 03A9
ENCODING 937
SWIDTH 780 0
DWIDTH 13 0
BBX 11 12 1 0
BITMAP
1F00
3180
40C0
C060
8020
8020
8020
C060
C040
71C0
1B00
FBE0
ENDCHAR
STARTCHAR 03AA
ENCODING 938
SWIDTH 240 0
DWIDTH 4 0
BBX 4 15 0 0
BITMAP
90
00
00
40
40
40
40
40
40
40
40
40
40
40
40
ENDCHAR
STARTCHAR 03AB
ENCODING 939
SWIDTH 600 0
DWIDTH 10 0
BBX 8 15 1 0
BITMAP
34
00
00
81
C3
62
26
34
1C
08
08
08
08
08
08
ENDCHAR
STARTCHAR 03AC
ENCODING 940
SWIDTH 600 0
DWIDTH 10 0
BBX 8 12 1 0
BITMAP
08
08
00
3D
67
C3
81
81
81
C3
67
3D
ENDCHAR
STARTCHAR 03AD
ENCODING 941
SWIDTH 480 0
DWIDTH 8 0
BBX 7 12 1 0
BITMAP
18
10
00
78
CC
80
C0
70
C0
80
CE
78
ENDCHAR
STARTCHAR 03AE
ENCODING 942
SWIDTH 540 0
DWIDTH 9 0
BBX 7 16 1 -4
BITMAP
08
18
00
BC
EE
C6
82
82
82
82
82
82
02
02
02
02
ENDCHAR
STARTCHAR 03AF
ENCODING 943
SWIDTH 180 0
DWIDTH 3 0
BBX 2 12 1 0
BITMAP
C0
80
00
80
80
80
80
80
80
80
80
80
ENDCHAR
STARTCHAR 03B0
ENCODING 944
SWIDTH 540 0
DWIDTH 9 0
BBX 7 13 1 0
BITMAP
10
54
00
00
84
86
82
82
82
82
82
EC
78
ENDCHAR
STARTCHAR 03B1
ENCODING 945
SWIDTH 600 0
DWIDTH 10 0
BBX 8 9 1 0
BITMAP
3D
67
C3
81
81
81
C3
67
3D
ENDCHAR
STARTCHAR 03B2
ENCODING 946
SWIDTH 600 0
DWIDTH 10 0
BBX 7 16 2 -4
BITMAP
78
CE
82
82
86
9C
8E
86
82
86
CC
B8
80
80
80
80
ENDCHAR
STARTCHAR 03B3
ENCODING 947
SWIDTH 540 0
DWIDTH 9 0
BBX 9 13 0 -4
BITMAP
C180
4100
6300
6200
2200
3600
1400
1C00
1800
0800
0800
0800
0800
ENDCHAR
STARTCHAR 03B4
ENCODING 948
SWIDTH 600 0
DWIDTH 10 0
BBX 8 12 1 0
BITMAP
FE
60
30
3C
7E
C3
81
81
81
C3
66
3C
ENDCHAR
STARTCHAR 03B5
ENCODING 949
SWIDTH 480 0
DWIDTH 8 0
BBX 7 9 1 0
BITMAP
78
CC
80
C0
70
C0
80
CE
78
ENDCHAR
STARTCHAR 03B6
ENCODING 950
SWIDTH 540 0
DWIDTH 9 0
BBX 7 12 1 -3
BITMAP
FE
0E
18
30
60
C0
80
C0
7E
06
06
04
ENDCHAR
STARTCHAR 03B7
ENCODING 951
SWIDTH 540 0
DWIDTH 9 0
BBX 7 13 1 -4
BITMAP
BC
EE
C6
82
82
82
82
82
82
02
02
02
02
ENDCHAR
STARTCHAR 03B8
ENCODING 952
SWIDTH 660 0
DWIDTH 11 0
BBX 9 12 1 0
BITMAP
3C00
7700
C100
8180
8080
FF80
8080
8080
C180
C100
6700
3C00
ENDCHAR
STARTCHAR 03B9
ENCODING 953
SWIDTH 180 0
DWIDTH 3 0
BBX 1 9 1 0
BITMAP
80
80
80
80
80
80
80
80
80
ENDCHAR
STARTCHAR 03BA
ENCODING 954
SWIDTH 480 0
DWIDTH 8 0
BBX 6 9 1 0
BITMAP
8C
98
90
A0
E0
B0
98
88
84
ENDCHAR
STARTCHAR 03BB
ENCODING 955
SWIDTH 480 0
DWIDTH 8 0
BBX 8 12 0 0
BITMAP
20
30
10
18
18
18
1C
34
26
62
43
C3
ENDCHAR
STARTCHAR 03BC
ENCODING 956
SWIDTH 540 0
DWIDTH 9 0
BBX 7 13 1 -4
BITMAP
82
82
82
82
82
82
86
CE
FA
80
80
80
80
ENDCHAR
STARTCHAR 03BD
ENCODING 957
SWIDTH 540 0
DWIDTH 9 0
BBX 8 9 0 0
BITMAP
C1
43
63
62
26
34
14
1C
18
ENDCHAR
STARTCHAR 03BE
ENCODING 958
SWIDTH 540 0
DWIDTH 9 0
BBX 7 15 1 -3
BITMAP
78
CE
80
80
C0
78
C0
80
80
80
C0
7E
02
02
06
ENDCHAR
STARTCHAR 03BF
ENCODING 959
SWIDTH 600 0
DWIDTH 10 0
BBX 8 9 1 0
BITMAP
3C
66
C3
81
81
81
C3
66
3C
ENDCHAR
STARTCHAR 03C0
ENCODING 960
SWIDTH 780 0
DWIDTH 13 0
BBX 11 9 1 0
BITMAP
FFE0
2080
2080
2080
2080
2080
2080
20C0
2060
ENDCHAR
STARTCHAR 03C1
ENCODING 961
SWIDTH 600 0
DWIDTH 10 0
BBX 8 13 1 -4
BITMAP
3C
66
C3
81
81
81
C3
E6
BC
80
80
80
80
ENDCHAR
STARTCHAR 03C2
ENCODING 962
SWIDTH 600 0
DWIDTH 10 0
BBX 8 12 1 -3
BITMAP
3E
77
C1
80
80
80
C0
70
3F
01
01
03
ENDCHAR
STARTCHAR 03C3
ENCODING 963
SWIDTH 660 0
DWIDTH 11 0
BBX 9 9 1 0
BITMAP
3F80
6600
C300
8100
8100
8100
C300
6600
3C00
ENDCHAR
STARTCHAR 03C4
ENCODING 964
SWIDTH 540 0
DWIDTH 9 0
BBX 7 9 1 0
BITMAP
FE
10
10
10
10
10
10
10
10
ENDCHAR
STARTCHAR 03C5
ENCODING 965
SWIDTH 540 0
DWIDTH 9 0
BBX 7 9 1 0
BITMAP
84
84
86
82
82
82
C6
CC
78
ENDCHAR
STARTCHAR 03C6
ENCODING 966
SWIDTH 780 0
DWIDTH 13 0
BBX 11 13 1 -4
BITMAP
2380
66C0
C460
8420
8420
8420
C460
64C0
3F80
0400
0400
0400
0400
ENDCHAR
STARTCHAR 03C7
ENCODING 967
SWIDTH 480 0
DWIDTH 8 0
BBX 7 9 1 0
BITMAP
86
CC
68
38
30
78
48
CC
86
ENDCHAR
STARTCHAR 03C8
ENCODING 968
SWIDTH 720 0
DWIDTH 12 0
BBX 10 13 1 -4
BITMAP
8980
88C0
88C0
8840
8840
8840
C8C0
6B80
3F00
0800
0800
0800
0800
ENDCHAR
STARTCHAR 03C9
ENCODING 969
SWIDTH 780 0
DWIDTH 13 0
BBX 11 9 1 0
BITMAP
4040
C060
8460
8420
8420
8420
8C60
CAC0
7B80
ENDCHAR
STARTCHAR 03CA
ENCODING 970
SWIDTH 180 0
DWIDTH 3 0
BBX 3 12 0 0
BITMAP
A0
00
00
40
40
40
40
40
40
40
40
40
ENDCHAR
STARTCHAR 03CB
ENCODING 971
SWIDTH 540 0
DWIDTH 9 0
BBX 7 12 1 0
BITMAP
48
00
00
84
84
86
82
82
82
C6
CC
78
ENDCHAR
STARTCHAR 03CC
ENCODING 972
SWIDTH 600 0
DWIDTH 10 0
BBX 8 12 1 0
BITMAP
08
08
00
3C
66
C3
81
81
81
C3
66
3C
ENDCHAR
STARTCHAR 03CD
ENCODING 973
SWIDTH 540 0
DWIDTH 9 0
BBX 7 12 1 0
BITMAP
18
10
00
84
84
86
82
82
82
C6
CC
78
ENDCHAR
STARTCHAR 03CE
ENCODING 974
SWIDTH 780 0
DWIDTH 13 0
BBX 11 12 1 0
BITMAP
0600
0400
0000
4040
C060
8460
8420
8420
8420
8C60
CAC0
7B80
ENDCHAR
STARTCHAR 03D1
ENCODING 977
SWIDTH 600 0
DWIDTH 10 0
BBX 9 12 1 0
BITMAP
1C00
3600
2200
A200
B200
9A00
8F80
8200
8200
8600
CC00
7800
ENDCHAR
STARTCHAR 03D2
ENCODING 978
SWIDTH 660 0
DWIDTH 11 0
BBX 9 12 1 0
BITMAP
C180
6300
2200
3600
1400
1C00
0800
0800
0800
0800
0800
0800
ENDCHAR
STARTCHAR 03D3
ENCODING 979
SWIDTH 720 0
DWIDTH 12 0
BBX 12 12 -1 0
BITMAP
5830
CC60
0440
06C0
0280
0380
0100
0100
0100
0100
0100
0100
ENDCHAR
STARTCHAR 03D4
ENCODING 980
SWIDTH 660 0
DWIDTH 11 0
BBX 9 15 1 0
BITMAP
1200
0000
0000
C180
6300
2200
3200
1400
1C00
0800
0800
0800
0800
0800
0800
ENDCHAR
STARTCHAR 03D6
ENCODING 982
SWIDTH 900 0
DWIDTH 15 0
BBX 13 9 1 0
BITMAP
FFF8
6010
4018
4208
4208
4208
4618
6530
39E0
ENDCHAR
STARTCHAR 0400
ENCODING 1024
SWIDTH 600 0
DWIDTH 10 0
BBX 7 15 2 0
BITMAP
20
30
00
FE
80
80
80
80
FC
80
80
80
80
80
FE
ENDCHAR
STARTCHAR 0401
ENCODING 1025
SWIDTH 540 0
DWIDTH 9 0
BBX 6 15 2 0
BITMAP
48
00
00
FC
80
80
80
80
FC
80
80
80
80
80
FC
ENDCHAR
STARTCHAR 0402
ENCODING 1026
SWIDTH 780 0
DWIDTH 13 0
BBX 11 12 1 0
BITMAP
FF00
1000
1000
1000
1000
1780
1CC0
1060
1020
1020
1060
10C0
ENDCHAR
STARTCHAR 0403
ENCODING 1027
SWIDTH 540 0
DWIDTH 9 0
BBX 6 15 2 0
BITMAP
10
10
00
FC
80
80
80
80
80
80
80
80
80
80
80
ENDCHAR
STARTCHAR 0404
ENCODING 1028
SWIDTH 780 0
DWIDTH 13 0
BBX 11 12 1 0
BITMAP
0F80
39C0
6040
C000
8000
FE00
8000
C000
C000
6060
39C0
0F80
ENDCHAR
STARTCHAR 0405
ENCODING 1029
SWIDTH 540 0
DWIDTH 9 0
BBX 8 12 0 0
BITMAP
3C
66
42
40
60
3C
0E
03
41
C1
67
3C
ENDCHAR
STARTCHAR 0406
ENCODING 1030
SWIDTH 240 0
DWIDTH 4 0
BBX 1 12 2 0
BITMAP
80
80
80
80
80
80
80
80
80
80
80
80
ENDCHAR
STARTCHAR 0407
ENCODING 1031
SWIDTH 240 0
DWIDTH 4 0
BBX 4 15 0 0
BITMAP
90
00
00
40
40
40
40
40
40
40
40
40
40
40
40
ENDCHAR
STARTCHAR 0408
ENCODING 1032
SWIDTH 540 0
DWIDTH 9 0
BBX 7 12 1 0
BITMAP
02
02
02
02
02
02
02
02
02
86
EC
38
ENDCHAR
STARTCHAR 0409
ENCODING 1033
SWIDTH 1080 0
DWIDTH 18 0
BBX 16 12 1 0
BITMAP
3FC0
2040
2040
2040
2040
207E
2043
2041
2041
6043
6047
C07E
ENDCHAR
STARTCHAR 040A
ENCODING 1034
SWIDTH 1080 0
DWIDTH 18 0
BBX 15 12 2 0
BITMAP
8100
8100
8100
8100
8100
FFF8
810E
8106
8102
8106
810C
81F8
ENDCHAR
STARTCHAR 040B
ENCODING 1035
SWIDTH 780 0
DWIDTH 13 0
BBX 11 12 1 0
BITMAP
FF00
1000
1000
1000
1000
1780
1CE0
1060
1020
1020
1020
1020
ENDCHAR
STARTCHAR 040C
ENCODING 1036
SWIDTH 660 0
DWIDTH 11 0
BBX 8 15 2 0
BITMAP
18
10
00
83
86
8C
98
B0
A0
E0
B0
98
8C
86
83
ENDCHAR
STARTCHAR 040D
ENCODING 1037
SWIDTH 720 0
DWIDTH 12 0
BBX 9 15 2 0
BITMAP
1000
1800
0000
8180
8380
8280
8680
8C80
8880
9880
B080
A080
E080
C080
C080
ENDCHAR
STARTCHAR 040E
ENCODING 1038
SWIDTH 600 0
DWIDTH 10 0
BBX 9 16 1 0
BITMAP
3600
1C00
0000
0000
C180
C100
4300
6300
2200
3600
1400
1C00
0800
1800
1000
6000
ENDCHAR
STARTCHAR 040F
ENCODING 1039
SWIDTH 720 0
DWIDTH 12 0
BBX 9 15 2 -3
BITMAP
8080
8080
8080
8080
8080
8080
8080
8080
8080
8080
8080
FF80
0800
0800
0800
ENDCHAR
STARTCHAR 0410
ENCODING 1040
SWIDTH 660 0
DWIDTH 11 0
BBX 11 12 0 0
BITMAP
0600
0E00
0A00
1B00
1100
1100
3180
3F80
20C0
6040
4040
C060
ENDCHAR
STARTCHAR 0411
ENCODING 1041
SWIDTH 660 0
DWIDTH 11 0
BBX 8 12 2 0
BITMAP
FE
80
80
80
80
FC
87
83
81
83
86
FC
ENDCHAR
STARTCHAR 0412
ENCODING 1042
SWIDTH 660 0
DWIDTH 11 0
BBX 8 12 2 0
BITMAP
FC
86
82
82
86
F8
86
83
81
83
86
FC
ENDCHAR
STARTCHAR 0413
ENCODING 1043
SWIDTH 540 0
DWIDTH 9 0
BBX 6 12 2 0
BITMAP
FC
80
80
80
80
80
80
80
80
80
80
80
ENDCHAR
STARTCHAR 0414
ENCODING 1044
SWIDTH 780 0
DWIDTH 13 0
BBX 11 15 1 -3
BITMAP
1FC0
1040
1040
1040
1040
1040
3040
3040
3040
2040
6040
FFE0
8020
8020
8020
ENDCHAR
STARTCHAR 0415
ENCODING 1045
SWIDTH 600 0
DWIDTH 10 0
BBX 7 12 2 0
BITMAP
FE
80
80
80
80
FC
80
80
80
80
80
FE
ENDCHAR
STARTCHAR 0416
ENCODING 1046
SWIDTH 900 0
DWIDTH 15 0
BBX 14 12 0 0
BITMAP
410C
6108
3118
1930
0D60
05C0
07C0
0D60
1930
3118
6108
C10C
ENDCHAR
STARTCHAR 0417
ENCODING 1047
SWIDTH 540 0
DWIDTH 9 0
BBX 7 12 1 0
BITMAP
3C
66
42
02
06
1C
06
06
02
C6
6C
38
ENDCHAR
STARTCHAR 0418
ENCODING 1048
SWIDTH 720 0
DWIDTH 12 0
BBX 9 12 2 0
BITMAP
8180
8380
8280
8680
8C80
8880
9880
B080
A080
E080
C080
C080
ENDCHAR
STARTCHAR 0419
ENCODING 1049
SWIDTH 720 0
DWIDTH 12 0
BBX 9 16 2 0
BITMAP
2600
3400
1C00
0000
8180
8380
8280
8680
8C80
8880
9880
B080
A080
E080
C080
C080
ENDCHAR
STARTCHAR 041A
ENCODING 1050
SWIDTH 660 0
DWIDTH 11 0
BBX 8 12 2 0
BITMAP
83
86
8C
98
B0
A0
E0
B0
98
8C
86
83
ENDCHAR
STARTCHAR 041B
ENCODING 1051
SWIDTH 720 0
DWIDTH 12 0
BBX 11 12 0 0
BITMAP
1FE0
1020
1020
1020
1020
1020
1020
1020
1020
3020
3020
E020
ENDCHAR
STARTCHAR 041C
ENCODING 1052
SWIDTH 840 0
DWIDTH 14 0
BBX 11 12 2 0
BITMAP
C060
C0E0
E0A0
A0A0
A1A0
B120
9120
9B20
8A20
8A20
8E20
8420
ENDCHAR
STARTCHAR 041D
ENCODING 1053
SWIDTH 720 0
DWIDTH 12 0
BBX 9 12 2 0
BITMAP
8080
8080
8080
8080
8080
FF80
8080
8080
8080
8080
8080
8080
ENDCHAR
STARTCHAR 041E
ENCODING 1054
SWIDTH 840 0
DWIDTH 14 0
BBX 12 12 1 0
BITMAP
1F00
39C0
6060
C030
8030
8010
8010
8030
C030
6060
39C0
1F00
ENDCHAR
STARTCHAR 041F
ENCODING 1055
SWIDTH 660 0
DWIDTH 11 0
BBX 8 12 2 0
BITMAP
FF
81
81
81
81
81
81
81
81
81
81
81
ENDCHAR
STARTCHAR 0420
ENCODING 1056
SWIDTH 600 0
DWIDTH 10 0
BBX 7 12 2 0
BITMAP
F8
8C
86
82
82
86
FC
80
80
80
80
80
ENDCHAR
STARTCHAR 0421
ENCODING 1057
SWIDTH 720 0
DWIDTH 12 0
BBX 10 12 1 0
BITMAP
1F00
39C0
6040
C000
8000
8000
8000
8000
C000
6040
39C0
1F00
ENDCHAR
STARTCHAR 0422
ENCODING 1058
SWIDTH 600 0
DWIDTH 10 0
BBX 8 12 1 0
BITMAP
FF
08
08
08
08
08
08
08
08
08
08
08
ENDCHAR
STARTCHAR 0423
ENCODING 1059
SWIDTH 600 0
DWIDTH 10 0
BBX 9 12 1 0
BITMAP
C180
C180
4300
6300
2200
3600
1400
1C00
0800
1800
1000
7000
ENDCHAR
STARTCHAR 0424
ENCODING 1060
SWIDTH 780 0
DWIDTH 13 0
BBX 11 14 1 -1
BITMAP
0400
0400
3F00
75C0
C440
8460
8420
8420
8460
C440
75C0
3F00
0400
0400
ENDCHAR
STARTCHAR 0425
ENCODING 1061
SWIDTH 660 0
DWIDTH 11 0
BBX 9 12 1 0
BITMAP
C180
4300
6200
2600
3C00
1800
1C00
3400
2600
6300
C100
8180
ENDCHAR
STARTCHAR 0426
ENCODING 1062
SWIDTH 720 0
DWIDTH 12 0
BBX 9 15 2 -3
BITMAP
8100
8100
8100
8100
8100
8100
8100
8100
8100
8100
8100
FF80
0080
0080
0080
ENDCHAR
STARTCHAR 0427
ENCODING 1063
SWIDTH 600 0
DWIDTH 10 0
BBX 8 12 1 0
BITMAP
81
81
81
81
81
C3
7D
01
01
01
01
01
ENDCHAR
STARTCHAR 0428
ENCODING 1064
SWIDTH 960 0
DWIDTH 16 0
BBX 13 12 2 0
BITMAP
8208
8208
8208
8208
8208
8208
8208
8208
8208
8208
8208
FFF8
ENDCHAR
STARTCHAR 0429
ENCODING 1065
SWIDTH 960 0
DWIDTH 16 0
BBX 13 15 2 -3
BITMAP
8210
8210
8210
8210
8210
8210
8210
8210
8210
8210
8210
FFF8
0008
0008
0008
ENDCHAR
STARTCHAR 042A
ENCODING 1066
SWIDTH 780 0
DWIDTH 13 0
BBX 11 12 1 0
BITMAP
F000
1000
1000
1000
1F80
10C0
1060
1020
1020
1060
10C0
1F80
ENDCHAR
STARTCHAR 042B
ENCODING 1067
SWIDTH 840 0
DWIDTH 14 0
BBX 11 12 2 0
BITMAP
8020
8020
8020
8020
FC20
8620
8320
8120
8120
8320
8620
FC20
ENDCHAR
STARTCHAR 042C
ENCODING 1068
SWIDTH 660 0
DWIDTH 11 0
BBX 8 12 2 0
BITMAP
80
80
80
80
FC
86
83
81
81
83
86
FC
ENDCHAR
STARTCHAR 042D
ENCODING 1069
SWIDTH 780 0
DWIDTH 13 0
BBX 10 12 2 0
BITMAP
7C00
E700
8180
0080
00C0
1FC0
0040
00C0
0080
8180
E700
7C00
ENDCHAR
STARTCHAR 042E
ENCODING 1070
SWIDTH 1140 0
DWIDTH 19 0
BBX 16 12 2 0
BITMAP
81F0
831C
8606
8C03
8803
F801
8801
8803
8C03
8606
831C
81F0
ENDCHAR
STARTCHAR 042F
ENCODING 1071
SWIDTH 540 0
DWIDTH 9 0
BBX 7 12 1 0
BITMAP
7E
E2
82
82
82
C2
7E
32
22
62
C2
82
ENDCHAR
STARTCHAR 0430
ENCODING 1072
SWIDTH 540 0
DWIDTH 9 0
BBX 7 9 1 0
BITMAP
7C
CE
02
7E
C6
82
86
CE
7A
ENDCHAR
STARTCHAR 0431
ENCODING 1073
SWIDTH 600 0
DWIDTH 10 0
BBX 8 12 1 0
BITMAP
3E
60
C0
BC
E6
C3
81
81
81
C3
66
3C
ENDCHAR
STARTCHAR 0432
ENCODING 1074
SWIDTH 540 0
DWIDTH 9 0
BBX 7 9 1 0
BITMAP
F8
8C
84
8C
FC
86
82
86
FC
ENDCHAR
STARTCHAR 0433
ENCODING 1075
SWIDTH 420 0
DWIDTH 7 0
BBX 5 9 1 0
BITMAP
F8
80
80
80
80
80
80
80
80
ENDCHAR
STARTCHAR 0434
ENCODING 1076
SWIDTH 660 0
DWIDTH 11 0
BBX 9 12 1 -3
BITMAP
3F00
2100
2100
2100
2100
6100
6100
4100
FF80
8080
8080
8080
ENDCHAR
STARTCHAR 0435
ENCODING 1077
SWIDTH 600 0
DWIDTH 10 0
BBX 8 9 1 0
BITMAP
3C
66
81
FF
80
80
C3
66
3C
ENDCHAR
STARTCHAR 0436
ENCODING 1078
SWIDTH 780 0
DWIDTH 13 0
BBX 11 9 1 0
BITMAP
C460
64C0
2580
1500
1F00
3580
6480
44C0
C460
ENDCHAR
STARTCHAR 0437
ENCODING 1079
SWIDTH 480 0
DWIDTH 8 0
BBX 7 9 0 0
BITMAP
3C
6E
02
06
1C
06
02
EE
3C
ENDCHAR
STARTCHAR 0438
ENCODING 1080
SWIDTH 540 0
DWIDTH 9 0
BBX 7 9 1 0
BITMAP
86
86
8A
9A
92
A2
E2
C2
82
ENDCHAR
STARTCHAR 0439
ENCODING 1081
SWIDTH 540 0
DWIDTH 9 0
BBX 7 12 1 0
BITMAP
78
00
00
86
86
8E
9A
92
B2
E2
C2
82
ENDCHAR
STARTCHAR 043A
ENCODING 1082
SWIDTH 480 0
DWIDTH 8 0
BBX 6 9 1 0
BITMAP
8C
98
90
A0
E0
B0
98
88
84
ENDCHAR
STARTCHAR 043B
ENCODING 1083
SWIDTH 660 0
DWIDTH 11 0
BBX 9 9 1 0
BITMAP
3F80
2080
2080
2080
2080
2080
2080
6080
C080
ENDCHAR
STARTCHAR 043C
ENCODING 1084
SWIDTH 660 0
DWIDTH 11 0
BBX 9 9 1 0
BITMAP
C180
C180
E380
A280
B680
9480
9C80
8880
8080
ENDCHAR
STARTCHAR 043D
ENCODING 1085
SWIDTH 540 0
DWIDTH 9 0
BBX 7 9 1 0
BITMAP
82
82
82
82
FE
82
82
82
82
ENDCHAR
STARTCHAR 043E
ENCODING 1086
SWIDTH 600 0
DWIDTH 10 0
BBX 8 9 1 0
BITMAP
3C
66
C3
81
81
81
C3
66
3C
ENDCHAR
STARTCHAR 043F
ENCODING 1087
SWIDTH 540 0
DWIDTH 9 0
BBX 7 9 1 0
BITMAP
FE
82
82
82
82
82
82
82
82
ENDCHAR
STARTCHAR 0440
ENCODING 1088
SWIDTH 600 0
DWIDTH 10 0
BBX 8 13 1 -4
BITMAP
BC
E6
C3
81
81
81
C3
E6
BC
80
80
80
80
ENDCHAR
STARTCHAR 0441
ENCODING 1089
SWIDTH 540 0
DWIDTH 9 0
BBX 7 9 1 0
BITMAP
3C
66
C2
80
80
80
C2
66
3C
ENDCHAR
STARTCHAR 0442
ENCODING 1090
SWIDTH 540 0
DWIDTH 9 0
BBX 7 9 1 0
BITMAP
FE
10
10
10
10
10
10
10
10
ENDCHAR
STARTCHAR 0443
ENCODING 1091
SWIDTH 540 0
DWIDTH 9 0
BBX 8 13 0 -4
BITMAP
C1
43
62
22
26
34
1C
18
08
18
10
30
20
ENDCHAR
STARTCHAR 0444
ENCODING 1092
SWIDTH 780 0
DWIDTH 13 0
BBX 11 16 1 -4
BITMAP
0400
0400
0400
0E00
7F80
C4C0
8460
8420
8420
C460
64C0
3F80
0600
0400
0400
0400
ENDCHAR
STARTCHAR 0445
ENCODING 1093
SWIDTH 480 0
DWIDTH 8 0
BBX 7 9 1 0
BITMAP
86
CC
68
38
30
78
48
CC
86
ENDCHAR
STARTCHAR 0446
ENCODING 1094
SWIDTH 600 0
DWIDTH 10 0
BBX 8 12 1 -3
BITMAP
82
82
82
82
82
82
82
82
FF
01
01
01
ENDCHAR
STARTCHAR 0447
ENCODING 1095
SWIDTH 540 0
DWIDTH 9 0
BBX 7 9 1 0
BITMAP
82
82
82
82
C6
7E
02
02
02
ENDCHAR
STARTCHAR 0448
ENCODING 1096
SWIDTH 780 0
DWIDTH 13 0
BBX 11 9 1 0
BITMAP
8420
8420
8420
8420
8420
8420
8420
8420
FFE0
ENDCHAR
STARTCHAR 0449
ENCODING 1097
SWIDTH 840 0
DWIDTH 14 0
BBX 12 12 1 -3
BITMAP
8440
8440
8440
8440
8440
8440
8440
8440
FFF0
0010
0010
0010
ENDCHAR
STARTCHAR 044A
ENCODING 1098
SWIDTH 660 0
DWIDTH 11 0
BBX 9 9 1 0
BITMAP
E000
2000
2000
3F00
2180
2080
2080
2380
3F00
ENDCHAR
STARTCHAR 044B
ENCODING 1099
SWIDTH 660 0
DWIDTH 11 0
BBX 9 9 1 0
BITMAP
8080
8080
8080
FC80
8680
8280
8280
8E80
FC80
ENDCHAR
STARTCHAR 044C
ENCODING 1100
SWIDTH 540 0
DWIDTH 9 0
BBX 7 9 1 0
BITMAP
80
80
80
FC
86
82
82
8E
FC
ENDCHAR
STARTCHAR 044D
ENCODING 1101
SWIDTH 540 0
DWIDTH 9 0
BBX 7 9 1 0
BITMAP
78
CC
86
02
3E
02
86
CC
78
ENDCHAR
STARTCHAR 044E
ENCODING 1102
SWIDTH 780 0
DWIDTH 13 0
BBX 11 9 1 0
BITMAP
8780
8CC0
9860
9020
F020
9020
9860
8CC0
8780
ENDCHAR
STARTCHAR 044F
ENCODING 1103
SWIDTH 480 0
DWIDTH 8 0
BBX 6 9 1 0
BITMAP
7C
C4
84
84
C4
7C
64
44
84
ENDCHAR
STARTCHAR 0450
ENCODING 1104
SWIDTH 600 0
DWIDTH 10 0
BBX 8 12 1 0
BITMAP
30
10
00
3C
66
81
FF
80
80
C3
66
3C
ENDCHAR
STARTCHAR 0451
ENCODING 1105
SWIDTH 600 0
DWIDTH 10 0
BBX 8 12 1 0
BITMAP
24
00
00
3C
66
81
FF
80
80
C3
66
3C
ENDCHAR
STARTCHAR 0452
ENCODING 1106
SWIDTH 540 0
DWIDTH 9 0
BBX 8 16 0 -4
BITMAP
40
F8
40
5E
77
63
41
41
41
41
41
41
01
01
03
06
ENDCHAR
STARTCHAR 0453
ENCODING 1107
SWIDTH 420 0
DWIDTH 7 0
BBX 5 12 1 0
BITMAP
10
30
00
F8
80
80
80
80
80
80
80
80
ENDCHAR
STARTCHAR 0454
ENCODING 1108
SWIDTH 540 0
DWIDTH 9 0
BBX 7 9 1 0
BITMAP
3C
66
C2
80
F8
80
C2
66
3C
ENDCHAR
STARTCHAR 0455
ENCODING 1109
SWIDTH 480 0
DWIDTH 8 0
BBX 6 9 1 0
BITMAP
78
CC
80
C0
78
0C
84
CC
78
ENDCHAR
STARTCHAR 0456
ENCODING 1110
SWIDTH 240 0
DWIDTH 4 0
BBX 2 12 1 0
BITMAP
C0
C0
00
40
40
40
40
40
40
40
40
40
ENDCHAR
STARTCHAR 0457
ENCODING 1111
SWIDTH 180 0
DWIDTH 3 0
BBX 3 12 0 0
BITMAP
A0
00
00
40
40
40
40
40
40
40
40
40
ENDCHAR
STARTCHAR 0458
ENCODING 1112
SWIDTH 240 0
DWIDTH 4 0
BBX 3 16 0 -4
BITMAP
60
60
00
20
20
20
20
20
20
20
20
20
20
20
60
C0
ENDCHAR
STARTCHAR 0459
ENCODING 1113
SWIDTH 960 0
DWIDTH 16 0
BBX 14 9 1 0
BITMAP
3F80
2080
2080
2080
20F8
208C
2084
608C
C0F8
ENDCHAR
STARTCHAR 045A
ENCODING 1114
SWIDTH 780 0
DWIDTH 13 0
BBX 11 9 1 0
BITMAP
8400
8400
8400
8400
FFC0
8460
8420
8460
87C0
ENDCHAR
STARTCHAR 045B
ENCODING 1115
SWIDTH 540 0
DWIDTH 9 0
BBX 8 12 0 0
BITMAP
40
F8
40
5E
77
63
41
41
41
41
41
41
ENDCHAR
STARTCHAR 045C
ENCODING 1116
SWIDTH 480 0
DWIDTH 8 0
BBX 6 12 1 0
BITMAP
10
30
00
8C
98
90
A0
E0
B0
98
88
84
ENDCHAR
STARTCHAR 045D
ENCODING 1117
SWIDTH 540 0
DWIDTH 9 0
BBX 7 12 1 0
BITMAP
20
30
00
86
86
8A
9A
92
A2
E2
C2
82
ENDCHAR
STARTCHAR 045E
ENCODING 1118
SWIDTH 480 0
DWIDTH 8 0
BBX 8 16 0 -4
BITMAP
24
18
00
C3
42
42
66
24
34
1C
18
18
10
10
30
20
ENDCHAR
STARTCHAR 045F
ENCODING 1119
SWIDTH 540 0
DWIDTH 9 0
BBX 7 12 1 -3
BITMAP
82
82
82
82
82
82
82
82
FE
10
10
10
ENDCHAR
STARTCHAR 0490
ENCODING 1168
SWIDTH 480 0
DWIDTH 8 0
BBX 6 14 1 0
BITMAP
04
04
FC
80
80
80
80
80
80
80
80
80
80
80
ENDCHAR
STARTCHAR 0491
ENCODING 1169
SWIDTH 420 0
DWIDTH 7 0
BBX 5 11 1 0
BITMAP
08
08
F8
80
80
80
80
80
80
80
80
ENDCHAR
STARTCHAR 04AE
ENCODING 1198
SWIDTH 600 0
DWIDTH 10 0
BBX 9 12 1 0
BITMAP
C180
4100
6300
2600
3400
1C00
0800
0800
0800
0800
0800
0800
ENDCHAR
STARTCHAR 04AF
ENCODING 1199
SWIDTH 540 0
DWIDTH 9 0
BBX 8 13 0 -4
BITMAP
C1
41
63
22
26
36
14
1C
18
08
08
08
08
ENDCHAR
STARTCHAR 04B0
ENCODING 1200
SWIDTH 540 0
DWIDTH 9 0
BBX 9 12 0 0
BITMAP
C180
4300
6200
3600
1400
1C00
7F00
0800
0800
0800
0800
0800
ENDCHAR
STARTCHAR 04B1
ENCODING 1201
SWIDTH 480 0
DWIDTH 8 0
BBX 8 13 0 -4
BITMAP
C3
43
62
62
26
34
14
1C
7E
08
08
08
08
ENDCHAR
STARTCHAR 0E3F
ENCODING 3647
SWIDTH 600 0
DWIDTH 10 0
BBX 8 15 1 -2
BITMAP
10
10
FE
D2
D3
D3
DE
FE
D3
D1
D3
D7
FC
10
10
ENDCHAR
STARTCHAR 1E80
ENCODING 7808
SWIDTH 960 0
DWIDTH 16 0
BBX 15 15 0 0
BITMAP
0100
0100
0000
C182
4182
4386
63C6
6244
2244
266C
3468
1428
1C28
1838
1810
ENDCHAR
STARTCHAR 1E81
ENCODING 7809
SWIDTH 780 0
DWIDTH 13 0
BBX 13 12 0 0
BITMAP
0400
0200
0000
C218
4710
4510
6530
6DA0
28A0
28A0
38E0
10C0
ENDCHAR
STARTCHAR 1E82
ENCODING 7810
SWIDTH 960 0
DWIDTH 16 0
BBX 15 15 0 0
BITMAP
0080
0080
0000
C182
4182
4386
63C6
6244
2244
266C
3468
1428
1C28
1838
1810
ENDCHAR
STARTCHAR 1E83
ENCODING 7811
SWIDTH 780 0
DWIDTH 13 0
BBX 13 12 0 0
BITMAP
0100
0200
0000
C218
4710
4510
6530
6DA0
28A0
28A0
38E0
10C0
ENDCHAR
STARTCHAR 1E84
ENCODING 7812
SWIDTH 960 0
DWIDTH 16 0
BBX 15 15 0 0
BITMAP
0240
0000
0000
C182
4386
43C6
63C4
2244
264C
266C
3468
1428
1C38
1838
1810
ENDCHAR
STARTCHAR 1E85
ENCODING 7813
SWIDTH 780 0
DWIDTH 13 0
BBX 12 12 1 0
BITMAP
0900
0000
0000
8610
8630
CF20
4B20
4960
6960
31C0
30C0
30C0
ENDCHAR
STARTCHAR 1EF2
ENCODING 7922
SWIDTH 600 0
DWIDTH 10 0
BBX 9 15 1 0
BITMAP
1000
1800
0000
C180
4100
6300
2600
3400
1C00
0800
0800
0800
0800
0800
0800
ENDCHAR
STARTCHAR 1EF3
ENCODING 7923
SWIDTH 540 0
DWIDTH 9 0
BBX 8 16 0 -4
BITMAP
10
18
00
C1
43
62
22
26
34
1C
18
08
18
10
30
20
ENDCHAR
STARTCHAR 2000
ENCODING 8192
SWIDTH 420 0
DWIDTH 7 0
BBX 0 0 0 0
BITMAP
ENDCHAR
STARTCHAR 2001
ENCODING 8193
SWIDTH 840 0
DWIDTH 14 0
BBX 0 0 0 0
BITMAP
ENDCHAR
STARTCHAR 2002
ENCODING 8194
SWIDTH 420 0
DWIDTH 7 0
BBX 0 0 0 0
BITMAP
ENDCHAR
STARTCHAR 2003
ENCODING 8195
SWIDTH 840 0
DWIDTH 14 0
BBX 0 0 0 0
BITMAP
ENDCHAR
STARTCHAR 2004
ENCODING 8196
SWIDTH 300 0
DWIDTH 5 0
BBX 0 0 0 0
BITMAP
ENDCHAR
STARTCHAR 2005
ENCODING 8197
SWIDTH 180 0
DWIDTH 3 0
BBX 0 0 0 0
BITMAP
ENDCHAR
STARTCHAR 2006
ENCODING 8198
SWIDTH 120 0
DWIDTH 2 0
BBX 0 0 0 0
BITMAP
ENDCHAR
STARTCHAR 2007
ENCODING 8199
SWIDTH 660 0
DWIDTH 11 0
BBX 0 0 0 0
BITMAP
ENDCHAR
STARTCHAR 2008
ENCODING 8200
SWIDTH 240 0
DWIDTH 4 0
BBX 0 0 0 0
BITMAP
ENDCHAR
STARTCHAR 2009
ENCODING 8201
SWIDTH 120 0
DWIDTH 2 0
BBX 0 0 0 0
BITMAP
ENDCHAR
STARTCHAR 200A
ENCODING 8202
SWIDTH 60 0
DWIDTH 1 0
BBX 0 0 0 0
BITMAP
ENDCHAR
STARTCHAR 2013
ENCODING 8211
SWIDTH 600 0
DWIDTH 10 0
BBX 8 1 1 5
BITMAP
FF
ENDCHAR
STARTCHAR 2014
ENCODING 8212
SWIDTH 900 0
DWIDTH 15 0
BBX 13 1 1 5
BITMAP
FFF8
ENDCHAR
STARTCHAR 2015
ENCODING 8213
SWIDTH 1020 0
DWIDTH 17 0
BBX 15 1 1 5
BITMAP
FFFE
ENDCHAR
STARTCHAR 2018
ENCODING 8216
SWIDTH 240 0
DWIDTH 4 0
BBX 2 4 1 9
BITMAP
40
40
C0
C0
ENDCHAR
STARTCHAR 2019
ENCODING 8217
SWIDTH 240 0
DWIDTH 4 0
BBX 2 4 1 8
BITMAP
C0
C0
C0
80
ENDCHAR
STARTCHAR 201A
ENCODING 8218
SWIDTH 240 0
DWIDTH 4 0
BBX 2 4 1 -2
BITMAP
C0
C0
40
80
ENDCHAR
STARTCHAR 201C
ENCODING 8220
SWIDTH 420 0
DWIDTH 7 0
BBX 5 4 1 9
BITMAP
48
58
D8
D8
ENDCHAR
STARTCHAR 201D
ENCODING 8221
SWIDTH 420 0
DWIDTH 7 0
BBX 5 4 1 8
BITMAP
D8
D8
50
90
ENDCHAR
STARTCHAR 201E
ENCODING 8222
SWIDTH 420 0
DWIDTH 7 0
BBX 5 4 1 -2
BITMAP
D8
D8
50
90
ENDCHAR
STARTCHAR 2020
ENCODING 8224
SWIDTH 480 0
DWIDTH 8 0
BBX 6 9 1 3
BITMAP
10
10
FC
10
10
10
10
10
10
ENDCHAR
STARTCHAR 2021
ENCODING 8225
SWIDTH 480 0
DWIDTH 8 0
BBX 6 12 1 0
BITMAP
10
10
FC
10
10
10
10
10
FC
10
10
10
ENDCHAR
STARTCHAR 2022
ENCODING 8226
SWIDTH 360 0
DWIDTH 6 0
BBX 4 4 1 4
BITMAP
60
F0
F0
60
ENDCHAR
STARTCHAR 2026
ENCODING 8230
SWIDTH 720 0
DWIDTH 12 0
BBX 10 2 1 0
BITMAP
CCC0
CCC0
ENDCHAR
STARTCHAR 2030
ENCODING 8240
SWIDTH 1140 0
DWIDTH 19 0
BBX 17 12 1 0
BITMAP
704000
D8C000
888000
990000
730000
020000
04EF00
0DB980
191080
111080
21B980
20EF00
ENDCHAR
STARTCHAR 2031
ENCODING 8241
SWIDTH 1440 0
DWIDTH 24 0
BBX 22 12 1 0
BITMAP
704000
D8C000
888000
990000
730000
020000
04EF78
0DB9CC
191084
111084
21B9CC
20EE78
ENDCHAR
STARTCHAR 2039
ENCODING 8249
SWIDTH 360 0
DWIDTH 6 0
BBX 4 7 1 1
BITMAP
30
60
C0
80
40
20
30
ENDCHAR
STARTCHAR 203A
ENCODING 8250
SWIDTH 360 0
DWIDTH 6 0
BBX 4 7 1 1
BITMAP
C0
40
20
10
20
40
80
ENDCHAR
STARTCHAR 203C
ENCODING 8252
SWIDTH 480 0
DWIDTH 8 0
BBX 6 12 1 0
BITMAP
48
48
48
48
48
48
48
48
00
00
CC
CC
ENDCHAR
STARTCHAR 2042
ENCODING 8258
SWIDTH 900 0
DWIDTH 15 0
BBX 13 12 1 0
BITMAP
0200
0A80
0F80
0700
0D00
0000
0000
2020
A8A8
F8F8
7070
D0D8
ENDCHAR
STARTCHAR 2043
ENCODING 8259
SWIDTH 360 0
DWIDTH 6 0
BBX 4 1 1 5
BITMAP
F0
ENDCHAR
STARTCHAR 2044
ENCODING 8260
SWIDTH 180 0
DWIDTH 3 0
BBX 9 12 -3 0
BITMAP
0180
0100
0200
0600
0400
0800
1800
1000
2000
6000
4000
8000
ENDCHAR
STARTCHAR 2047
ENCODING 8263
SWIDTH 960 0
DWIDTH 16 0
BBX 14 12 1 0
BITMAP
7878
DCDC
8484
0404
0C0C
1818
1030
1020
0000
0000
3030
3030
ENDCHAR
STARTCHAR 2048
ENCODING 8264
SWIDTH 720 0
DWIDTH 12 0
BBX 10 12 1 0
BITMAP
7880
DC80
8480
0480
0C80
1880
1080
1080
0000
0000
30C0
30C0
ENDCHAR
STARTCHAR 2049
ENCODING 8265
SWIDTH 720 0
DWIDTH 12 0
BBX 10 12 1 0
BITMAP
4780
4DC0
4840
4040
4080
4100
4200
4200
0000
0000
C300
C300
ENDCHAR
STARTCHAR 204E
ENCODING 8270
SWIDTH 420 0
DWIDTH 7 0
BBX 6 5 0 0
BITMAP
10
10
FC
38
68
ENDCHAR
STARTCHAR 2051
ENCODING 8273
SWIDTH 420 0
DWIDTH 7 0
BBX 5 12 1 0
BITMAP
20
28
F8
70
D0
00
00
20
A8
F8
70
D8
ENDCHAR
STARTCHAR 2055
ENCODING 8277
SWIDTH 660 0
DWIDTH 11 0
BBX 9 9 1 1
BITMAP
0800
4900
2A00
1C00
FF80
1C00
2A00
4900
0800
ENDCHAR
STARTCHAR 2074
ENCODING 8308
SWIDTH 360 0
DWIDTH 6 0
BBX 5 6 1 6
BITMAP
10
30
50
90
F8
10
ENDCHAR
STARTCHAR 20A3
ENCODING 8355
SWIDTH 600 0
DWIDTH 10 0
BBX 8 12 1 0
BITMAP
3F
20
20
20
20
20
3F
20
20
F8
20
20
ENDCHAR
STARTCHAR 20A4
ENCODING 8356
SWIDTH 540 0
DWIDTH 9 0
BBX 8 12 1 0
BITMAP
3C
6E
42
40
40
F8
20
20
F8
20
43
FE
ENDCHAR
STARTCHAR 20A9
ENCODING 8361
SWIDTH 1020 0
DWIDTH 17 0
BBX 15 12 1 0
BITMAP
C106
4184
4384
628C
62CC
FFFE
2448
3458
3C78
1830
1830
1830
ENDCHAR
STARTCHAR 20AB
ENCODING 8363
SWIDTH 600 0
DWIDTH 10 0
BBX 9 14 1 -2
BITMAP
0100
0F80
0100
3D00
6700
C300
8300
8100
8300
C300
6700
3D00
0000
7F00
ENDCHAR
STARTCHAR 20AC
ENCODING 8364
SWIDTH 660 0
DWIDTH 11 0
BBX 9 12 1 0
BITMAP
0780
1C80
1000
3000
FE00
2000
2000
FE00
2000
3000
1C80
0780
ENDCHAR
STARTCHAR 20AE
ENCODING 8366
SWIDTH 600 0
DWIDTH 10 0
BBX 8 12 1 0
BITMAP
FF
08
08
0E
0C
38
6A
0E
18
78
48
08
ENDCHAR
STARTCHAR 20B1
ENCODING 8369
SWIDTH 720 0
DWIDTH 12 0
BBX 10 12 1 0
BITMAP
3E00
2300
2180
FFC0
2180
2180
3F00
2000
2000
2000
2000
2000
ENDCHAR
STARTCHAR 20B8
ENCODING 8376
SWIDTH 600 0
DWIDTH 10 0
BBX 8 12 1 0
BITMAP
FF
00
00
FF
08
08
08
08
08
08
08
08
ENDCHAR
STARTCHAR 20BA
ENCODING 8378
SWIDTH 600 0
DWIDTH 10 0
BBX 8 12 1 0
BITMAP
20
20
24
38
60
E4
3C
71
E3
A3
2E
38
ENDCHAR
STARTCHAR 20BD
ENCODING 8381
SWIDTH 660 0
DWIDTH 11 0
BBX 9 12 1 0
BITMAP
3E00
2300
2180
2080
2080
2180
FF00
2000
2000
F800
2000
2000
ENDCHAR
STARTCHAR 2103
ENCODING 8451
SWIDTH 960 0
DWIDTH 16 0
BBX 15 11 1 0
BITMAP
F1F8
930C
9604
6400
0C00
0C00
0C00
0400
0600
030E
01F8
ENDCHAR
STARTCHAR 2109
ENCODING 8457
SWIDTH 840 0
DWIDTH 14 0
BBX 12 11 1 1
BITMAP
F3F0
9200
9200
6200
0200
03F0
0200
0200
0200
0200
0200
ENDCHAR
STARTCHAR 2113
ENCODING 8467
SWIDTH 420 0
DWIDTH 7 0
BBX 6 12 0 0
BITMAP
3C
24
24
24
24
2C
F8
20
20
20
30
1C
ENDCHAR
STARTCHAR 2114
ENCODING 8468
SWIDTH 780 0
DWIDTH 13 0
BBX 12 12 0 0
BITMAP
6C00
FF00
6C00
6C00
6FE0
6E30
6C10
6C10
6C10
6C10
6E30
6FE0
ENDCHAR
STARTCHAR 2116
ENCODING 8470
SWIDTH 1080 0
DWIDTH 18 0
BBX 16 12 1 0
BITMAP
C08E
E091
A091
B091
989E
8884
8C80
849F
8680
8380
8180
8180
ENDCHAR
STARTCHAR 2117
ENCODING 8471
SWIDTH 540 0
DWIDTH 9 0
BBX 8 8 0 4
BITMAP
3C
42
9D
9D
91
91
42
38
ENDCHAR
STARTCHAR 211E
ENCODING 8478
SWIDTH 660 0
DWIDTH 11 0
BBX 10 15 1 -3
BITMAP
FC00
8600
8300
8100
8300
8600
FC00
88C0
8C80
8780
8300
8700
0580
0CC0
1840
ENDCHAR
STARTCHAR 2120
ENCODING 8480
SWIDTH 480 0
DWIDTH 8 0
BBX 8 4 0 8
BITMAP
E9
8B
75
E5
ENDCHAR
STARTCHAR 2122
ENCODING 8482
SWIDTH 480 0
DWIDTH 8 0
BBX 8 4 0 8
BITMAP
E9
5B
55
45
ENDCHAR
STARTCHAR 2126
ENCODING 8486
SWIDTH 780 0
DWIDTH 13 0
BBX 11 12 1 0
BITMAP
1F00
31C0
4040
C060
8020
8020
8020
C060
4040
60C0
1B00
FBE0
ENDCHAR
STARTCHAR 212E
ENCODING 8494
SWIDTH 780 0
DWIDTH 13 0
BBX 11 12 1 0
BITMAP
1F00
20C0
4040
C060
C060
FFE0
C000
C000
C000
4040
30C0
1F00
ENDCHAR
STARTCHAR 2153
ENCODING 8531
SWIDTH 900 0
DWIDTH 15 0
BBX 11 12 2 0
BITMAP
C080
4100
4300
4200
4400
4DC0
0960
1060
30C0
2060
4160
C1C0
ENDCHAR
STARTCHAR 2154
ENCODING 8532
SWIDTH 900 0
DWIDTH 15 0
BBX 12 12 1 0
BITMAP
7040
B0C0
1080
2100
C300
F260
04B0
0C10
0860
1030
30B0
20E0
ENDCHAR
STARTCHAR 215B
ENCODING 8539
SWIDTH 840 0
DWIDTH 14 0
BBX 11 12 2 0
BITMAP
C080
4180
4100
4200
4400
4DC0
0960
1120
30C0
2160
4160
C1C0
ENDCHAR
STARTCHAR 215C
ENCODING 8540
SWIDTH 840 0
DWIDTH 14 0
BBX 13 12 0 0
BITMAP
7840
4840
3080
1980
C900
7A70
0698
0498
0870
1898
10D8
2070
ENDCHAR
STARTCHAR 215D
ENCODING 8541
SWIDTH 840 0
DWIDTH 14 0
BBX 12 12 1 0
BITMAP
F040
80C0
E080
B100
9200
F6E0
04B0
0890
1860
10B0
20B0
40E0
ENDCHAR
STARTCHAR 215E
ENCODING 8542
SWIDTH 780 0
DWIDTH 13 0
BBX 11 12 1 0
BITMAP
F080
1100
2300
6200
4400
8DC0
0960
1120
30C0
2160
4160
81C0
ENDCHAR
STARTCHAR 2160
ENCODING 8544
SWIDTH 540 0
DWIDTH 9 0
BBX 7 12 1 0
BITMAP
FE
10
10
10
10
10
10
10
10
10
10
FE
ENDCHAR
STARTCHAR 2161
ENCODING 8545
SWIDTH 780 0
DWIDTH 13 0
BBX 11 12 1 0
BITMAP
FFE0
1100
1100
1100
1100
1100
1100
1100
1100
1100
1100
FFE0
ENDCHAR
STARTCHAR 2162
ENCODING 8546
SWIDTH 960 0
DWIDTH 16 0
BBX 15 12 0 0
BITMAP
FFFE
1108
1108
1108
1108
1108
1108
1108
1108
1108
1108
FFFE
ENDCHAR
STARTCHAR 2163
ENCODING 8547
SWIDTH 960 0
DWIDTH 16 0
BBX 16 12 0 0
BITMAP
FFFF
130C
1108
1108
1198
1198
1090
1090
10F0
1060
1060
FFFF
ENDCHAR
STARTCHAR 2164
ENCODING 8548
SWIDTH 840 0
DWIDTH 14 0
BBX 12 12 1 0
BITMAP
FFF0
30C0
30C0
1080
1980
1980
0900
0900
0F00
0600
0600
FFF0
ENDCHAR
STARTCHAR 2165
ENCODING 8549
SWIDTH 1020 0
DWIDTH 17 0
BBX 16 12 0 0
BITMAP
FFFF
30C8
1088
1088
1988
1908
0908
0B08
0F08
0608
0608
FFFF
ENDCHAR
STARTCHAR 2166
ENCODING 8550
SWIDTH 1260 0
DWIDTH 21 0
BBX 20 12 0 0
BITMAP
FFFFF0
30C880
108880
108880
198880
190880
090880
0B0880
0F0880
060880
060880
FFFFF0
ENDCHAR
STARTCHAR 2167
ENCODING 8551
SWIDTH 1500 0
DWIDTH 25 0
BBX 24 12 0 0
BITMAP
FFFFFF
30C884
108884
108884
198884
190884
090884
0B0884
0F0884
060884
060884
FFFFFF
ENDCHAR
STARTCHAR 2168
ENCODING 8552
SWIDTH 1020 0
DWIDTH 17 0
BBX 15 12 1 0
BITMAP
FFFE
1318
1118
11B0
10E0
10E0
10E0
10A0
11B0
1318
1308
FFFE
ENDCHAR
STARTCHAR 2169
ENCODING 8553
SWIDTH 780 0
DWIDTH 13 0
BBX 11 12 1 0
BITMAP
FFE0
3180
3100
1B00
0A00
0E00
0E00
0A00
1B00
3180
2080
FFE0
ENDCHAR
STARTCHAR 216A
ENCODING 8554
SWIDTH 1020 0
DWIDTH 17 0
BBX 15 12 1 0
BITMAP
FFFE
2190
3110
1B10
0E10
0C10
0C10
0E10
1B10
3110
2190
FFFE
ENDCHAR
STARTCHAR 216B
ENCODING 8555
SWIDTH 1200 0
DWIDTH 20 0
BBX 19 12 0 0
BITMAP
FFFFE0
319100
111100
1B1100
0E1100
0C1100
0E1100
0A1100
1B1100
311100
219100
FFFFE0
ENDCHAR
STARTCHAR 216C
ENCODING 8556
SWIDTH 660 0
DWIDTH 11 0
BBX 9 12 1 0
BITMAP
FC00
2000
2000
2000
2000
2000
2000
2000
2080
2080
2080
FF80
ENDCHAR
STARTCHAR 216D
ENCODING 8557
SWIDTH 720 0
DWIDTH 12 0
BBX 10 12 1 0
BITMAP
1E40
33C0
40C0
C000
8000
8000
8000
8000
C040
40C0
3180
1F00
ENDCHAR
STARTCHAR 216E
ENCODING 8558
SWIDTH 720 0
DWIDTH 12 0
BBX 10 12 1 0
BITMAP
FE00
2300
2080
20C0
2040
2040
2040
2040
20C0
2080
2300
FE00
ENDCHAR
STARTCHAR 216F
ENCODING 8559
SWIDTH 1020 0
DWIDTH 17 0
BBX 15 12 1 0
BITMAP
F01E
3038
3838
2828
2C68
2C48
2448
26C8
2288
2288
2388
F93E
ENDCHAR
STARTCHAR 2180
ENCODING 8576
SWIDTH 1020 0
DWIDTH 17 0
BBX 15 12 1 0
BITMAP
1FF0
7118
4104
C106
8102
8102
8102
8102
C106
4104
7118
1FF0
ENDCHAR
STARTCHAR 2181
ENCODING 8577
SWIDTH 720 0
DWIDTH 12 0
BBX 10 12 1 0
BITMAP
FE00
2300
2080
3CC0
2640
2240
2240
2640
3CC0
2080
2300
FE00
ENDCHAR
STARTCHAR 2182
ENCODING 8578
SWIDTH 1080 0
DWIDTH 18 0
BBX 16 12 1 0
BITMAP
1FF8
711C
4106
C7E3
8D31
8911
8911
8933
C7E3
4106
711C
1FF8
ENDCHAR
STARTCHAR 2190
ENCODING 8592
SWIDTH 1080 0
DWIDTH 18 0
BBX 16 5 1 3
BITMAP
2000
6000
FFFF
6000
2000
ENDCHAR
STARTCHAR 2191
ENCODING 8593
SWIDTH 480 0
DWIDTH 8 0
BBX 5 16 1 -2
BITMAP
20
70
F8
20
20
20
20
20
20
20
20
20
20
20
20
20
ENDCHAR
STARTCHAR 2192
ENCODING 8594
SWIDTH 1080 0
DWIDTH 18 0
BBX 16 5 1 3
BITMAP
0004
0006
FFFF
0006
0004
ENDCHAR
STARTCHAR 2193
ENCODING 8595
SWIDTH 480 0
DWIDTH 8 0
BBX 6 15 1 -2
BITMAP
20
20
20
20
20
20
20
20
20
20
20
20
FC
78
30
ENDCHAR
STARTCHAR 2196
ENCODING 8598
SWIDTH 780 0
DWIDTH 13 0
BBX 12 12 1 0
BITMAP
F000
E000
E000
B000
1800
0C00
0600
0300
0180
00C0
0060
0030
ENDCHAR
STARTCHAR 2197
ENCODING 8599
SWIDTH 780 0
DWIDTH 13 0
BBX 12 12 0 0
BITMAP
00F0
0070
0070
00D0
0180
0300
0600
0C00
1800
3000
6000
C000
ENDCHAR
STARTCHAR 2198
ENCODING 8600
SWIDTH 780 0
DWIDTH 13 0
BBX 12 12 1 0
BITMAP
0030
0060
00C0
0180
0300
0600
0C00
1800
B000
E000
E000
F000
ENDCHAR
STARTCHAR 2199
ENCODING 8601
SWIDTH 780 0
DWIDTH 13 0
BBX 12 12 0 0
BITMAP
8000
4000
2000
1000
0800
0400
0200
0100
0090
0070
0070
00F0
ENDCHAR
STARTCHAR 21C4
ENCODING 8644
SWIDTH 1080 0
DWIDTH 18 0
BBX 16 11 1 0
BITMAP
0004
0006
0007
FFFF
0006
0004
2000
6000
FFFF
6000
2000
ENDCHAR
STARTCHAR 2202
ENCODING 8706
SWIDTH 540 0
DWIDTH 9 0
BBX 8 12 1 0
BITMAP
70
38
0C
06
3E
67
83
81
81
83
C6
7C
ENDCHAR
STARTCHAR 2206
ENCODING 8710
SWIDTH 660 0
DWIDTH 11 0
BBX 11 12 0 0
BITMAP
0400
0E00
0A00
1B00
1B00
1100
3180
2080
2080
60C0
4040
FFE0
ENDCHAR
STARTCHAR 220F
ENCODING 8719
SWIDTH 660 0
DWIDTH 11 0
BBX 8 12 2 0
BITMAP
FF
81
81
81
81
81
81
81
81
81
81
81
ENDCHAR
STARTCHAR 2211
ENCODING 8721
SWIDTH 540 0
DWIDTH 9 0
BBX 7 12 1 0
BITMAP
FE
80
40
60
30
18
18
30
60
40
C0
FE
ENDCHAR
STARTCHAR 2212
ENCODING 8722
SWIDTH 540 0
DWIDTH 9 0
BBX 7 1 1 4
BITMAP
FE
ENDCHAR
STARTCHAR 2215
ENCODING 8725
SWIDTH 420 0
DWIDTH 7 0
BBX 6 12 1 0
BITMAP
0C
08
18
10
10
30
20
60
40
40
80
80
ENDCHAR
STARTCHAR 221A
ENCODING 8730
SWIDTH 660 0
DWIDTH 11 0
BBX 11 14 0 -1
BITMAP
00E0
0180
0180
0100
0300
C300
4200
6600
6600
2400
2C00
3C00
1800
1800
ENDCHAR
STARTCHAR 221E
ENCODING 8734
SWIDTH 720 0
DWIDTH 12 0
BBX 11 5 0 2
BITMAP
71C0
CA20
8420
CA20
71C0
ENDCHAR
STARTCHAR 222B
ENCODING 8747
SWIDTH 360 0
DWIDTH 6 0
BBX 5 17 0 -4
BITMAP
18
30
20
20
20
20
20
20
20
20
20
20
20
20
20
20
C0
ENDCHAR
STARTCHAR 2248
ENCODING 8776
SWIDTH 540 0
DWIDTH 9 0
BBX 8 5 1 3
BITMAP
F3
9E
00
F3
9E
ENDCHAR
STARTCHAR 2260
ENCODING 8800
SWIDTH 540 0
DWIDTH 9 0
BBX 7 8 1 1
BITMAP
04
04
FE
18
10
FE
60
40
ENDCHAR
STARTCHAR 2264
ENCODING 8804
SWIDTH 480 0
DWIDTH 8 0
BBX 6 9 1 0
BITMAP
04
1C
60
80
70
1C
04
00
FC
ENDCHAR
STARTCHAR 2265
ENCODING 8805
SWIDTH 480 0
DWIDTH 8 0
BBX 6 9 1 0
BITMAP
80
60
18
04
18
E0
80
00
FC
ENDCHAR
STARTCHAR 25A0
ENCODING 9632
SWIDTH 840 0
DWIDTH 14 0
BBX 12 12 1 0
BITMAP
FFF0
FFF0
FFF0
FFF0
FFF0
FFF0
FFF0
FFF0
FFF0
FFF0
FFF0
FFF0
ENDCHAR
STARTCHAR 25A1
ENCODING 9633
SWIDTH 840 0
DWIDTH 14 0
BBX 12 12 1 0
BITMAP
FFF0
8010
8010
8010
8010
8010
8010
8010
8010
8010
8010
FFF0
ENDCHAR
STARTCHAR 25B2
ENCODING 9650
SWIDTH 900 0
DWIDTH 15 0
BBX 14 12 0 0
BITMAP
0100
0300
0380
07C0
0FC0
0FE0
1FE0
1FF0
3FF0
7FF8
7FFC
FFFC
ENDCHAR
STARTCHAR 25B3
ENCODING 9651
SWIDTH 900 0
DWIDTH 15 0
BBX 14 12 0 0
BITMAP
0100
0300
0280
04C0
0C40
0820
1020
1010
2010
6008
400C
FFFC
ENDCHAR
STARTCHAR 25CA
ENCODING 9674
SWIDTH 540 0
DWIDTH 9 0
BBX 7 12 1 0
BITMAP
30
28
68
44
C6
82
82
C6
44
6C
28
30
ENDCHAR
STARTCHAR 25CB
ENCODING 9675
SWIDTH 840 0
DWIDTH 14 0
BBX 12 12 1 0
BITMAP
0F00
30C0
4020
4020
8010
8010
8010
8010
4020
4020
30C0
0F00
ENDCHAR
STARTCHAR 25CF
ENCODING 9679
SWIDTH 840 0
DWIDTH 14 0
BBX 12 12 1 0
BITMAP
1F80
3FC0
7FE0
FFF0
FFF0
FFF0
FFF0
FFF0
FFF0
7FE0
3FC0
1F80
ENDCHAR
STARTCHAR 2713
ENCODING 10003
SWIDTH 960 0
DWIDTH 16 0
BBX 14 12 1 0
BITMAP
0004
000C
0018
0030
0060
0040
0080
8100
4200
6400
3C00
1800
ENDCHAR
STARTCHAR 2715
ENCODING 10005
SWIDTH 720 0
DWIDTH 12 0
BBX 12 12 0 0
BITMAP
8010
4020
2040
1080
0900
0600
0600
0900
1080
2040
6020
C010
ENDCHAR
STARTCHAR 275B
ENCODING 10075
SWIDTH 360 0
DWIDTH 6 0
BBX 5 8 0 4
BITMAP
70
F8
F8
F8
70
60
30
10
ENDCHAR
STARTCHAR 275C
ENCODING 10076
SWIDTH 360 0
DWIDTH 6 0
BBX 5 8 0 4
BITMAP
70
F8
F8
F8
70
30
60
40
ENDCHAR
STARTCHAR 275D
ENCODING 10077
SWIDTH 720 0
DWIDTH 12 0
BBX 11 8 0 4
BITMAP
71C0
FBE0
FBE0
FBE0
7180
6180
30C0
1040
ENDCHAR
STARTCHAR 275E
ENCODING 10078
SWIDTH 720 0
DWIDTH 12 0
BBX 11 8 0 4
BITMAP
71C0
FBE0
FBE0
FBE0
70C0
30C0
6180
4100
ENDCHAR
STARTCHAR 2780
ENCODING 10112
SWIDTH 840 0
DWIDTH 14 0
BBX 12 12 1 0
BITMAP
0F00
30C0
4020
4620
8610
8210
8210
8210
4220
4020
30C0
0F00
ENDCHAR
STARTCHAR 2781
ENCODING 10113
SWIDTH 840 0
DWIDTH 14 0
BBX 12 12 1 0
BITMAP
0F00
30C0
4020
4720
8910
8110
8210
8410
4F20
4020
30C0
0F00
ENDCHAR
STARTCHAR 2782
ENCODING 10114
SWIDTH 840 0
DWIDTH 14 0
BBX 12 12 1 0
BITMAP
0F00
30C0
4020
4F20
8110
8610
8110
8910
4F20
4020
30C0
0F00
ENDCHAR
STARTCHAR 2783
ENCODING 10115
SWIDTH 840 0
DWIDTH 14 0
BBX 12 12 1 0
BITMAP
0F00
30C0
4020
4220
8610
8A10
8A10
9F10
4220
4020
30C0
0F00
ENDCHAR
STARTCHAR 2784
ENCODING 10116
SWIDTH 840 0
DWIDTH 14 0
BBX 12 12 1 0
BITMAP
0F00
30C0
4020
4F20
8810
8E10
8110
8910
4E20
4020
30C0
0F00
ENDCHAR
STARTCHAR 2785
ENCODING 10117
SWIDTH 840 0
DWIDTH 14 0
BBX 12 12 1 0
BITMAP
0F00
30C0
4020
4220
8410
8E10
8910
8910
4620
4020
30C0
0F00
ENDCHAR
STARTCHAR 2786
ENCODING 10118
SWIDTH 840 0
DWIDTH 14 0
BBX 12 12 1 0
BITMAP
0F00
30C0
4020
4F20
8110
8210
8610
8410
4C20
4020
30C0
0F00
ENDCHAR
STARTCHAR 2787
ENCODING 10119
SWIDTH 840 0
DWIDTH 14 0
BBX 12 12 1 0
BITMAP
0F00
30C0
4020
4720
8910
8610
8910
8910
4720
4020
30C0
0F00
ENDCHAR
STARTCHAR 2788
ENCODING 10120
SWIDTH 840 0
DWIDTH 14 0
BBX 12 12 1 0
BITMAP
0F00
30C0
4020
4620
8910
8910
8710
8210
4420
4020
30C0
0F00
ENDCHAR
STARTCHAR 278A
ENCODING 10122
SWIDTH 840 0
DWIDTH 14 0
BBX 12 12 1 0
BITMAP
1F80
3FC0
7FE0
79F0
F9F0
FDF0
FDF0
FDF0
7DF0
7FE0
3FE0
1F80
ENDCHAR
STARTCHAR 278B
ENCODING 10123
SWIDTH 840 0
DWIDTH 14 0
BBX 12 12 1 0
BITMAP
0F00
3FC0
7FE0
F9F0
F6F0
FEF0
FDF0
FBF0
F0F0
7FE0
3FC0
1F80
ENDCHAR
STARTCHAR 278C
ENCODING 10124
SWIDTH 840 0
DWIDTH 14 0
BBX 12 12 1 0
BITMAP
0F80
3FC0
7FE0
79F0
FEF0
FCF0
FCF0
F6F0
79F0
7FE0
3FC0
0F00
ENDCHAR
STARTCHAR 278D
ENCODING 10125
SWIDTH 840 0
DWIDTH 14 0
BBX 12 12 1 0
BITMAP
1F80
3FC0
7FE0
7DF0
F9F0
FDF0
F5F0
F0F0
FDF0
7FE0
3FC0
1F80
ENDCHAR
STARTCHAR 278E
ENCODING 10126
SWIDTH 840 0
DWIDTH 14 0
BBX 12 12 1 0
BITMAP
1F80
3FC0
7FE0
F0F0
F7F0
F1F0
FEF0
F6F0
F9E0
7FE0
3FC0
1F00
ENDCHAR
STARTCHAR 278F
ENCODING 10127
SWIDTH 840 0
DWIDTH 14 0
BBX 12 12 1 0
BITMAP
1F80
3FC0
7FE0
FDF0
FBF0
F1F0
F6F0
F6F0
79F0
7FE0
3FC0
1F80
ENDCHAR
STARTCHAR 2790
ENCODING 10128
SWIDTH 840 0
DWIDTH 14 0
BBX 12 12 1 0
BITMAP
1F80
3FC0
7FE0
F0F0
FEF0
FDF0
FDF0
FBF0
FBF0
7FE0
3FC0
1F80
ENDCHAR
STARTCHAR 2791
ENCODING 10129
SWIDTH 840 0
DWIDTH 14 0
BBX 12 12 1 0
BITMAP
0F00
3FC0
7FE0
79E0
F6F0
F0F0
F0F0
F6F0
F9F0
7FE0
3FC0
1F80
ENDCHAR
STARTCHAR 2792
ENCODING 10130
SWIDTH 840 0
DWIDTH 14 0
BBX 12 12 1 0
BITMAP
0F00
3FC0
7FE0
79E0
F6F0
F6F0
F8F0
FDF0
FBF0
7FE0
3FC0
1F80
ENDCHAR
ENDFONT
